<svg viewBox="0 0 2431 780" fill="none" xmlns="http://www.w3.org/2000/svg">
<path d="M949.536 660.9C945.936 660.9 944.136 659.1 944.136 655.5C944.136 652.1 945.336 648.3 947.736 644.1C950.336 639.7 953.436 635.3 957.036 630.9C960.636 626.3 964.236 622.1 967.836 618.3C971.636 614.5 974.736 611.4 977.136 609C974.336 607.6 970.836 606.4 966.636 605.4C962.636 604.2 958.536 602.9 954.336 601.5C950.336 599.9 946.936 597.9 944.136 595.5C941.536 592.9 940.236 589.5 940.236 585.3C940.236 580.9 941.836 575.9 945.036 570.3C948.436 564.7 952.736 559.3 957.936 554.1C963.136 548.7 968.436 544.3 973.836 540.9C979.236 537.3 984.036 535.5 988.236 535.5C990.836 535.5 993.336 536.2 995.736 537.6C998.336 538.8 999.636 540.9 999.636 543.9C999.636 544.7 999.436 545.8 999.036 547.2C998.636 548.6 997.936 549.3 996.936 549.3C995.536 549.3 994.336 548.6 993.336 547.2C992.536 545.6 991.536 544.8 990.336 544.8C986.936 544.8 982.836 546.2 978.036 549C973.436 551.8 968.936 555.4 964.536 559.8C960.136 564 956.436 568.4 953.436 573C950.636 577.6 949.236 581.7 949.236 585.3C949.236 587.7 950.636 589.8 953.436 591.6C956.236 593.4 959.536 594.9 963.336 596.1C967.336 597.3 971.236 598.5 975.036 599.7C978.836 600.7 981.636 601.8 983.436 603C984.436 602 986.136 600.4 988.536 598.2C990.936 596 993.636 593.6 996.636 591C999.636 588.4 1002.34 586.2 1004.74 584.4C1007.34 582.6 1009.14 581.7 1010.14 581.7C1010.94 581.7 1011.34 582.1 1011.34 582.9C1011.34 583.9 1010.34 585.6 1008.34 588C1006.54 590.2 1004.24 592.6 1001.44 595.2C998.836 597.8 996.336 600.3 993.936 602.7C991.536 604.9 989.836 606.5 988.836 607.5C990.636 610.5 991.536 613.7 991.536 617.1C991.536 620.5 990.036 624.7 987.036 629.7C984.036 634.5 980.236 639.3 975.636 644.1C971.236 648.9 966.636 652.9 961.836 656.1C957.036 659.3 952.936 660.9 949.536 660.9ZM960.936 645.6C962.736 645.6 964.836 644.6 967.236 642.6C969.836 640.6 972.336 638.1 974.736 635.1C977.136 632.1 979.136 629.2 980.736 626.4C982.536 623.4 983.436 621 983.436 619.2C983.436 617.2 983.036 615.7 982.236 614.7C981.036 615.9 979.136 617.8 976.536 620.4C974.136 623 971.536 625.9 968.736 629.1C966.136 632.1 963.836 635 961.836 637.8C960.036 640.4 959.136 642.4 959.136 643.8C959.136 645 959.736 645.6 960.936 645.6ZM1019.16 668.4C1015.76 668.4 1013.26 666.7 1011.66 663.3C1010.06 660.1 1009.06 656.4 1008.66 652.2C1008.26 648 1008.06 644.8 1008.06 642.6C1008.06 635 1008.76 627 1010.16 618.6C1011.56 610 1013.36 602 1015.56 594.6C1016.56 591.2 1018.36 586.3 1020.96 579.9C1023.56 573.3 1026.66 566.6 1030.26 559.8C1034.06 553 1038.06 547.3 1042.26 542.7C1046.66 537.9 1051.06 535.5 1055.46 535.5C1058.86 535.5 1062.56 537 1066.56 540C1070.56 543 1072.56 546.3 1072.56 549.9C1072.56 551.3 1072.06 552.5 1071.06 553.5C1071.26 553.3 1071.76 553.2 1072.56 553.2C1076.36 553.2 1078.26 555.2 1078.26 559.2C1078.26 563.8 1077.56 569.3 1076.16 575.7C1074.96 582.1 1073.66 588.9 1072.26 596.1C1070.86 603.1 1070.16 609.9 1070.16 616.5C1070.16 618.9 1070.36 621.8 1070.76 625.2C1071.16 628.4 1072.06 631.3 1073.46 633.9C1075.06 636.5 1077.56 637.8 1080.96 637.8C1084.16 637.8 1087.56 636.1 1091.16 632.7C1094.76 629.3 1098.26 625.1 1101.66 620.1C1105.06 615.1 1108.26 610.1 1111.26 605.1C1114.26 600.1 1116.76 595.9 1118.76 592.5C1120.96 589.1 1122.46 587.4 1123.26 587.4C1124.66 587.4 1125.36 588.3 1125.36 590.1C1125.36 592.5 1124.26 596 1122.06 600.6C1120.06 605 1117.36 609.9 1113.96 615.3C1110.56 620.5 1106.76 625.6 1102.56 630.6C1098.56 635.4 1094.46 639.4 1090.26 642.6C1086.26 645.6 1082.66 647.1 1079.46 647.1C1074.26 647.1 1070.26 645 1067.46 640.8C1064.86 636.4 1063.06 631.2 1062.06 625.2C1061.26 619.2 1060.86 613.6 1060.86 608.4C1060.86 606.6 1060.86 604.9 1060.86 603.3C1060.86 601.7 1060.96 600.3 1061.16 599.1C1059.96 601.9 1058.26 606.1 1056.06 611.7C1053.86 617.1 1051.26 623.1 1048.26 629.7C1045.46 636.1 1042.36 642.3 1038.96 648.3C1035.76 654.1 1032.46 658.9 1029.06 662.7C1025.66 666.5 1022.36 668.4 1019.16 668.4ZM1021.56 655.8C1024.16 655.8 1027.06 653.4 1030.26 648.6C1033.46 643.8 1036.76 637.7 1040.16 630.3C1043.76 622.7 1047.16 614.6 1050.36 606C1053.56 597.4 1056.46 589.3 1059.06 581.7C1061.86 573.9 1064.16 567.5 1065.96 562.5C1067.76 557.3 1068.96 554.5 1069.56 554.1L1067.76 554.4C1066.36 554.4 1065.26 553.7 1064.46 552.3C1063.66 550.7 1062.66 549.2 1061.46 547.8C1060.26 546.4 1058.26 545.7 1055.46 545.7C1051.86 545.7 1048.36 547.8 1044.96 552C1041.56 556.2 1038.26 561.3 1035.06 567.3C1032.06 573.1 1029.46 578.8 1027.26 584.4C1025.26 590 1023.86 594.2 1023.06 597C1019.06 610.8 1017.06 625 1017.06 639.6C1017.06 640.4 1017.06 642.2 1017.06 645C1017.26 647.6 1017.66 650.1 1018.26 652.5C1019.06 654.7 1020.16 655.8 1021.56 655.8ZM1138.24 663.9C1132.84 663.9 1128.54 661.8 1125.34 657.6C1122.14 653.2 1119.84 647.9 1118.44 641.7C1117.04 635.3 1116.14 629 1115.74 622.8C1115.34 616.6 1115.14 611.7 1115.14 608.1C1115.14 587.9 1117.44 567.5 1122.04 546.9C1124.24 537.3 1126.34 528.9 1128.34 521.7C1130.54 514.5 1132.84 507.8 1135.24 501.6C1137.64 495.4 1140.34 489 1143.34 482.4C1146.54 475.8 1150.14 468.3 1154.14 459.9H1153.24C1152.04 459.9…C1427.16 616 1426.96 610.5 1426.96 605.7C1426.96 603.5 1426.96 601.6 1426.96 600C1426.96 598.2 1427.06 596.7 1427.26 595.5C1425.46 599.3 1422.96 604.6 1419.76 611.4C1416.76 618.2 1413.26 625 1409.26 631.8C1405.26 638.6 1400.96 644.4 1396.36 649.2C1391.76 654 1387.06 656.4 1382.26 656.4C1376.06 656.4 1371.86 654 1369.66 649.2C1367.66 644.2 1366.66 639.2 1366.66 634.2C1366.66 627.4 1367.66 619.6 1369.66 610.8C1371.86 602 1374.56 594.6 1377.76 588.6C1378.96 586.2 1380.76 583 1383.16 579C1385.56 575 1388.26 571 1391.26 567C1394.46 562.8 1397.66 559.3 1400.86 556.5C1404.26 553.7 1407.46 552.3 1410.46 552.3C1414.86 552.3 1417.86 553.9 1419.46 557.1C1421.26 560.1 1422.16 563.5 1422.16 567.3C1422.16 569.9 1420.66 571.2 1417.66 571.2C1416.26 571.2 1415.46 570.4 1415.26 568.8C1415.26 567 1415.06 565.3 1414.66 563.7C1414.26 562.1 1412.86 561.3 1410.46 561.3C1406.86 561.3 1403.36 563.3 1399.96 567.3C1396.56 571.3 1393.36 576.5 1390.36 582.9C1387.56 589.1 1385.06 595.6 1382.86 602.4C1380.66 609.2 1378.96 615.5 1377.76 621.3C1376.56 627.1 1375.96 631.5 1375.96 634.5C1375.96 636.7 1376.26 639.6 1376.86 643.2C1377.66 646.6 1379.66 648.3 1382.86 648.3C1384.66 648.3 1386.76 647.2 1389.16 645C1391.76 642.8 1394.26 640.1 1396.66 636.9C1399.26 633.5 1401.56 630.3 1403.56 627.3C1405.56 624.3 1406.96 622.1 1407.76 620.7C1413.36 609.7 1417.76 599.6 1420.96 590.4C1424.16 581 1426.76 571.9 1428.76 563.1C1430.76 554.3 1432.66 545.1 1434.46 535.5C1436.26 525.9 1438.46 515.4 1441.06 504C1441.46 502.2 1442.26 499.2 1443.46 495C1444.86 490.8 1446.56 487 1448.56 483.6C1450.76 480 1453.16 478.2 1455.76 478.2C1457.76 478.2 1458.96 479.2 1459.36 481.2C1459.96 483.2 1460.26 484.9 1460.26 486.3C1460.26 489.5 1459.56 494.2 1458.16 500.4C1456.96 506.4 1455.46 512.9 1453.66 519.9C1451.86 526.9 1449.96 533.5 1447.96 539.7C1446.16 545.7 1444.66 550.3 1443.46 553.5C1442.66 555.5 1441.76 557.7 1440.76 560.1C1439.76 562.5 1439.06 564.8 1438.66 567C1437.26 573.2 1436.36 580.1 1435.96 587.7C1435.76 595.3 1435.66 602.4 1435.66 609C1435.66 610.6 1435.66 613.7 1435.66 618.3C1435.86 622.7 1436.26 627.5 1436.86 632.7C1437.66 637.7 1438.66 642 1439.86 645.6C1441.26 649.2 1443.16 651 1445.56 651C1448.36 651 1451.06 649.1 1453.66 645.3C1456.46 641.3 1459.06 636.8 1461.46 631.8C1464.06 626.6 1466.36 622.1 1468.36 618.3C1470.36 614.3 1471.96 612.3 1473.16 612.3C1475.16 612.3 1476.16 613.5 1476.16 615.9C1476.16 617.7 1474.96 621 1472.56 625.8C1470.36 630.4 1467.46 635.3 1463.86 640.5C1460.46 645.5 1457.06 649.9 1453.66 653.7C1450.46 657.3 1447.76 659.1 1445.56 659.1ZM1480.59 668.4C1477.19 668.4 1474.69 666.7 1473.09 663.3C1471.49 660.1 1470.49 656.4 1470.09 652.2C1469.69 648 1469.49 644.8 1469.49 642.6C1469.49 635 1470.19 627 1471.59 618.6C1472.99 610 1474.79 602 1476.99 594.6C1477.99 591.2 1479.79 586.3 1482.39 579.9C1484.99 573.3 1488.09 566.6 1491.69 559.8C1495.49 553 1499.49 547.3 1503.69 542.7C1508.09 537.9 1512.49 535.5 1516.89 535.5C1520.29 535.5 1523.99 537 1527.99 540C1531.99 543 1533.99 546.3 1533.99 549.9C1533.99 551.3 1533.49 552.5 1532.49 553.5C1532.69 553.3 1533.19 553.2 1533.99 553.2C1537.79 553.2 1539.69 555.2 1539.69 559.2C1539.69 563.8 1538.99 569.3 1537.59 575.7C1536.39 582.1 1535.09 588.9 1533.69 596.1C1532.29 603.1 1531.59 609.9 1531.59 616.5C1531.59 618.9 1531.79 621.8 1532.19 625.2C1532.59 628.4 1533.49 631.3 1534.89 633.9C1536.49 636.5 1538.99 637.8 1542.39 637.8C1545.59 637.8 1548.99 636.1 1552.59 632.7C1556.19 629.3 1559.69 625.1 1563.09 620.1C1566.49 615.1 1569.69 610.1 1572.69 605.1C1575.69 600.1 1578.19 595.9 1580.19 592.5C1582.39 589.1 1583.89 587.4 1584.69 587.4C1586.09 587.4 1586.79 588.3 1586.79 590.1C1586.79 592.5 1585.69 596 1583.49 600.6C1581.49 605 1578.79 609.9 1575.39 615.3C1571.99 620.5 1568.19 625.6 1563.99 630.6C1559.99 635.4 1555.89 639.4 1551.69 642.6C1547.69 645.6 1544.09 647.1 1540.89 647.1C1535.69 647.1 1531.69 645 1528.89 640.8C1526.29 636.4 1524.49 631.2 1523.49 625.2C1522.69 619.2 1522.29 613.6 1522.29 608.4C1522.29 606.6 1522.29 604.9 1522.29 603.3C1522.29 601.7 1522.39 600.3 1522.59 599.1C1521.39 601.9 1519.69 606.1 1517.49 611.7C1515.29 617.1 1512.69 623.1 1509.69 629.7C1506.89 636.1 1503.79 642.3 1500.39 648.3C1497.19 654.1 1493.89 658.9 1490.49 662.7C1487.09 666.5 1483.79 668.4 1480.59 668.4ZM1482.99 655.8C1485.59 655.8 1488.49 653.4 1491.69 648.6C1494.89 643.8 1498.19 637.7 1501.59 630.3C1505.19 622.7 1508.59 614.6 1511.79 606C1514.99 597.4 1517.89 589.3 1520.49 581.7C1523.29 573.9 1525.59 567.5 1527.39 562.5C1529.19 557.3 1530.39 554.5 1530.99 554.1L1529.19 554.4C1527.79 554.4 1526.69 553.7 1525.89 552.3C1525.09 550.7 1524.09 549.2 1522.89 547.8C1521.69 546.4 1519.69 545.7 1516.89 545.7C1513.29 545.7 1509.79 547.8 1506.39 552C1502.99 556.2 1499.69 561.3 1496.49 567.3C1493.49 573.1 1490.89 578.8 1488.69 584.4C1486.69 590 1485.29 594.2 1484.49 597C1480.49 610.8 1478.49 625 1478.49 639.6C1478.49 640.4 1478.49 642.2 1478.49 645C1478.69 647.6 1479.09 650.1 1479.69 652.5C1480.49 654.7 1481.59 655.8 1482.99 655.8Z" fill="#30601B"></path>
<path d="M947.736 644.1L947.521 643.973L947.519 643.976L947.736 644.1ZM957.036 630.9L957.229 631.058L957.233 631.054L957.036 630.9ZM967.836 618.3L967.659 618.123L967.654 618.128L967.836 618.3ZM977.136 609L977.313 609.177L977.558 608.932L977.248 608.776L977.136 609ZM966.636 605.4L966.564 605.639L966.571 605.642L966.578 605.643L966.636 605.4ZM954.336 601.5L954.243 601.732L954.25 601.735L954.257 601.737L954.336 601.5ZM944.136 595.5L943.959 595.677L943.966 595.684L943.973 595.69L944.136 595.5ZM945.036 570.3L944.822 570.17L944.819 570.176L945.036 570.3ZM957.936 554.1L958.113 554.277L958.116 554.273L957.936 554.1ZM973.836 540.9L973.969 541.112L973.975 541.108L973.836 540.9ZM995.736 537.6L995.61 537.816L995.62 537.822L995.631 537.827L995.736 537.6ZM993.336 547.2L993.112 547.312L993.121 547.329L993.133 547.345L993.336 547.2ZM978.036 549L977.91 548.784L977.906 548.786L978.036 549ZM964.536 559.8L964.709 559.981L964.713 559.977L964.536 559.8ZM953.436 573L953.226 572.863L953.222 572.87L953.436 573ZM953.436 591.6L953.301 591.81L953.436 591.6ZM963.336 596.1L963.261 596.338L963.264 596.339L963.336 596.1ZM975.036 599.7L974.961 599.939L974.972 599.942L975.036 599.7ZM983.436 603L983.297 603.208L983.468 603.322L983.613 603.177L983.436 603ZM988.536 598.2L988.367 598.016L988.536 598.2ZM996.636 591L996.8 591.189L996.636 591ZM1004.74 584.4L1004.59 584.194L1004.59 584.2L1004.74 584.4ZM1008.34 588L1008.14 587.84L1008.14 587.842L1008.34 588ZM1001.44 595.2L1001.27 595.017L1001.26 595.023L1001.44 595.2ZM993.936 602.7L994.105 602.884L994.113 602.877L993.936 602.7ZM988.836 607.5L988.659 607.323L988.521 607.461L988.622 607.629L988.836 607.5ZM987.036 629.7L987.248 629.833L987.25 629.829L987.036 629.7ZM975.636 644.1L975.455 643.927L975.452 643.931L975.636 644.1ZM961.836 656.1L961.697 655.892L961.836 656.1ZM967.236 642.6L967.083 642.402L967.076 642.408L967.236 642.6ZM974.736 635.1L974.931 635.256L974.736 635.1ZM980.736 626.4L980.522 626.271L980.519 626.276L980.736 626.4ZM982.236 614.7L982.431 614.544L982.257 614.326L982.059 614.523L982.236 614.7ZM976.536 620.4L976.359 620.223L976.352 620.23L976.536 620.4ZM968.736 629.1L968.548 628.935L968.547 628.936L968.736 629.1ZM961.836 637.8L961.632 637.655L961.63 637.658L961.836 637.8ZM949.536 660.65C947.774 660.65 946.499 660.21 945.663 659.373C944.826 658.537 944.386 657.261 944.386 655.5H943.886C943.886 657.339 944.346 658.763 945.309 659.727C946.273 660.69 947.697 661.15 949.536 661.15V660.65ZM944.386 655.5C944.386 652.158 945.566 648.401 947.953 644.224L947.519 643.976C945.106 648.199 943.886 652.042 943.886 655.5H944.386ZM947.951 644.227C950.544 639.839 953.637 635.45 957.229 631.058L956.842 630.742C953.235 635.15 950.128 639.561 947.521 643.973L947.951 644.227ZM957.233 631.054C960.829 626.46 964.423 622.266 968.017 618.472L967.654 618.128C964.048 621.934 960.443 626.14 956.839 630.746L957.233 631.054ZM968.013 618.477C971.813 614.677 974.913 611.577 977.313 609.177L976.959 608.823C974.559 611.223 971.459 614.323 967.659 618.123L968.013 618.477ZM977.248 608.776C974.426 607.365 970.906 606.16 966.694 605.157L966.578 605.643C970.766 606.64 974.246 607.835 977.024 609.224L977.248 608.776ZM966.708 605.161C962.71 603.961 958.613 602.662 954.415 601.263L954.257 601.737C958.459 603.138 962.562 604.439 966.564 605.639L966.708 605.161ZM954.429 601.268C950.45 599.676 947.075 597.69 944.299 595.31L943.973 595.69C946.797 598.11 950.222 600.124 954.243 601.732L954.429 601.268ZM944.313 595.323C941.766 592.777 940.486 589.444 940.486 585.3H939.986C939.986 589.556 941.305 593.023 943.959 595.677L944.313 595.323ZM940.486 585.3C940.486 580.959 942.065 576.003 945.253 570.424L944.819 570.176C941.607 575.797 939.986 580.841 939.986 585.3H940.486ZM945.25 570.43C948.638 564.849 952.925 559.464 958.113 554.277L957.759 553.923C952.547 559.136 948.234 564.551 944.822 570.17L945.25 570.43ZM958.116 554.273C963.304 548.886 968.589 544.499 973.969 541.112L973.703 540.688C968.283 544.101 962.968 548.514 957.756 553.927L958.116 554.273ZM973.975 541.108C979.354 537.522 984.105 535.75 988.236 535.75V535.25C983.966 535.25 979.118 537.078 973.697 540.692L973.975 541.108ZM988.236 535.75C990.789 535.75 993.245 536.437 995.61 537.816L995.862 537.384C993.426 535.963 990.883 535.25 988.236 535.25V535.75ZM995.631 537.827C996.894 538.41 997.828 539.205 998.448 540.207C999.069 541.209 999.386 542.436 999.386 543.9H999.886C999.886 542.364 999.553 541.041 998.874 539.943C998.194 538.845 997.178 537.99 995.841 537.373L995.631 537.827ZM999.386 543.9C999.386 544.665 999.193 545.739 998.796 547.131L999.276 547.269C999.678 545.861 999.886 544.735 999.886 543.9H999.386ZM998.796 547.131C998.602 547.808 998.343 548.289 998.034 548.598C997.732 548.901 997.37 549.05 996.936 549.05V549.55C997.501 549.55 997.99 549.349 998.388 548.952C998.779 548.561 999.07 547.992 999.276 547.269L998.796 547.131ZM996.936 549.05C995.635 549.05 994.505 548.406 993.539 547.055L993.133 547.345C994.167 548.794 995.436 549.55 996.936 549.55V549.05ZM993.56 547.088C992.74 545.45 991.67…C1478.74 640.174 1478.74 640.172 1478.74 640.169C1478.74 640.167 1478.74 640.165 1478.74 640.162C1478.74 640.16 1478.74 640.158 1478.74 640.155C1478.74 640.153 1478.74 640.151 1478.74 640.149C1478.74 640.146 1478.74 640.144 1478.74 640.142C1478.74 640.139 1478.74 640.137 1478.74 640.135C1478.74 640.133 1478.74 640.13 1478.74 640.128C1478.74 640.126 1478.74 640.124 1478.74 640.121C1478.74 640.119 1478.74 640.117 1478.74 640.115C1478.74 640.112 1478.74 640.11 1478.74 640.108C1478.74 640.106 1478.74 640.103 1478.74 640.101C1478.74 640.099 1478.74 640.097 1478.74 640.094C1478.74 640.092 1478.74 640.09 1478.74 640.088C1478.74 640.086 1478.74 640.083 1478.74 640.081C1478.74 640.079 1478.74 640.077 1478.74 640.074C1478.74 640.072 1478.74 640.07 1478.74 640.068C1478.74 640.066 1478.74 640.064 1478.74 640.061C1478.74 640.059 1478.74 640.057 1478.74 640.055C1478.74 640.053 1478.74 640.05 1478.74 640.048C1478.74 640.046 1478.74 640.044 1478.74 640.042C1478.74 640.04 1478.74 640.037 1478.74 640.035C1478.74 640.033 1478.74 640.031 1478.74 640.029C1478.74 640.027 1478.74 640.024 1478.74 640.022C1478.74 640.02 1478.74 640.018 1478.74 640.016C1478.74 640.014 1478.74 640.012 1478.74 640.01C1478.74 640.007 1478.74 640.005 1478.74 640.003C1478.74 640.001 1478.74 639.999 1478.74 639.997C1478.74 639.995 1478.74 639.993 1478.74 639.99C1478.74 639.988 1478.74 639.986 1478.74 639.984C1478.74 639.982 1478.74 639.98 1478.74 639.978C1478.74 639.976 1478.74 639.974 1478.74 639.972C1478.74 639.97 1478.74 639.968 1478.74 639.965C1478.74 639.963 1478.74 639.961 1478.74 639.959C1478.74 639.957 1478.74 639.955 1478.74 639.953C1478.74 639.951 1478.74 639.949 1478.74 639.947C1478.74 639.945 1478.74 639.943 1478.74 639.941C1478.74 639.939 1478.74 639.937 1478.74 639.935C1478.74 639.933 1478.74 639.931 1478.74 639.929C1478.74 639.926 1478.74 639.924 1478.74 639.922C1478.74 639.92 1478.74 639.918 1478.74 639.916C1478.74 639.914 1478.74 639.912 1478.74 639.91C1478.74 639.908 1478.74 639.906 1478.74 639.904C1478.74 639.902 1478.74 639.9 1478.74 639.898C1478.74 639.896 1478.74 639.894 1478.74 639.892C1478.74 639.89 1478.74 639.888 1478.74 639.886C1478.74 639.885 1478.74 639.883 1478.74 639.881C1478.74 639.879 1478.74 639.877 1478.74 639.875C1478.74 639.873 1478.74 639.871 1478.74 639.869C1478.74 639.867 1478.74 639.865 1478.74 639.863C1478.74 639.861 1478.74 639.859 1478.74 639.857C1478.74 639.855 1478.74 639.853 1478.74 639.851C1478.74 639.849 1478.74 639.848 1478.74 639.846C1478.74 639.844 1478.74 639.842 1478.74 639.84C1478.74 639.838 1478.74 639.836 1478.74 639.834C1478.74 639.832 1478.74 639.83 1478.74 639.828C1478.74 639.827 1478.74 639.825 1478.74 639.823C1478.74 639.821 1478.74 639.819 1478.74 639.817C1478.74 639.815 1478.74 639.813 1478.74 639.811C1478.74 639.81 1478.74 639.808 1478.74 639.806C1478.74 639.804 1478.74 639.802 1478.74 639.8C1478.74 639.798 1478.74 639.797 1478.74 639.795C1478.74 639.793 1478.74 639.791 1478.74 639.789C1478.74 639.787 1478.74 639.785 1478.74 639.784C1478.74 639.782 1478.74 639.78 1478.74 639.778C1478.74 639.776 1478.74 639.774 1478.74 639.773C1478.74 639.771 1478.74 639.769 1478.74 639.767C1478.74 639.765 1478.74 639.764 1478.74 639.762C1478.74 639.76 1478.74 639.758 1478.74 639.756C1478.74 639.755 1478.74 639.753 1478.74 639.751C1478.74 639.749 1478.74 639.747 1478.74 639.746C1478.74 639.744 1478.74 639.742 1478.74 639.74C1478.74 639.738 1478.74 639.737 1478.74 639.735C1478.74 639.733 1478.74 639.731 1478.74 639.73C1478.74 639.728 1478.74 639.726 1478.74 639.724C1478.74 639.723 1478.74 639.721 1478.74 639.719C1478.74 639.717 1478.74 639.716 1478.74 639.714C1478.74 639.712 1478.74 639.71 1478.74 639.709C1478.74 639.707 1478.74 639.705 1478.74 639.703C1478.74 639.702 1478.74 639.7 1478.74 639.698C1478.74 639.697 1478.74 639.695 1478.74 639.693C1478.74 639.691 1478.74 639.69 1478.74 639.688C1478.74 639.686 1478.74 639.685 1478.74 639.683C1478.74 639.681 1478.74 639.68 1478.74 639.678C1478.74 639.676 1478.74 639.675 1478.74 639.673C1478.74 639.671 1478.74 639.67 1478.74 639.668C1478.74 639.666 1478.74 639.665 1478.74 639.663C1478.74 639.661 1478.74 639.66 1478.74 639.658C1478.74 639.656 1478.74 639.655 1478.74 639.653C1478.74 639.651 1478.74 639.65 1478.74 639.648C1478.74 639.646 1478.74 639.645 1478.74 639.643C1478.74 639.641 1478.74 639.64 1478.74 639.638C1478.74 639.637 1478.74 639.635 1478.74 639.633C1478.74 639.632 1478.74 639.63 1478.74 639.629C1478.74 639.627 1478.74 639.625 1478.74 639.624C1478.74 639.622 1478.74 639.621 1478.74 639.619C1478.74 639.617 1478.74 639.616 1478.74 639.614C1478.74 639.613 1478.74 639.611 1478.74 639.609C1478.74 639.608 1478.74 639.606 1478.74 639.605C1478.74 639.603 1478.74 639.602 1478.74 639.6H1478.24ZM1478.24 645.019C1478.44 647.632 1478.84 650.146 1479.45 652.561L1479.93 652.439C1479.34 650.054 1478.94 647.568 1478.74 644.981L1478.24 645.019ZM1479.45 652.585C1480.26 654.81 1481.42 656.05 1482.99 656.05V655.55C1481.76 655.55 1480.72 654.59 1479.92 652.415L1479.45 652.585Z" fill="#30601B"></path>
<path d="M249.189 592.485C231.306 597.603 212.219 596.668 191.928 589.682C171.556 582.406 154.577 569.948 140.989 552.306C131.755 540.283 125.381 527.91 121.867 515.186L120.502 508.556C120.551 507.606 120.016 505.107 118.898 501.059L114.152 485.567L111.277 475.157C110.398 471.976 109.983 469.911 110.032 468.961C110.081 468.01 109.666 465.945 108.787 462.764C106.71 455.246 103.786 445.786 100.014 434.384L94.5031 414.431C93.6556 412.489 93.1364 410.61 92.9455 408.792L91.8672 404.888L85.7569 382.767L82.1626 369.754C77.6275 351.082 73.5228 335.095 69.8486 321.793C68.7304 317.745 68.3975 313.159 68.8501 308.037L68.8832 296.327C68.4705 291.453 68.9231 286.331 70.2409 280.961C71.5587 275.591 73.9193 268.363 77.3226 259.277C85.9706 242.136 96.3538 229.024 108.472 219.94C120.51 210.566 136.047 203.156 155.083 197.708L179.983 191.519C198.185 187.558 216.59 188.843 235.2 195.375C253.81 201.906 268.356 212.877 278.837 228.288C283.51 235.063 286.733 240.537 288.508 244.71C290.572 248.8 292.402 253.737 293.999 259.52C294.94 265.179 292.686 269.413 287.237 272.22L272.96 276.306L240.08 285.715C233.446 287.613 228.49 285.444 225.211 279.205L221.876 272.203L218.348 266.192C214.603 261.647 210.208 258.692 205.163 257.328C200.326 255.592 194.287 255.136 187.045 255.96C182.479 256.33 178.178 257.093 174.14 258.249C163.805 260.27 154.758 265.824 146.997 274.909C139.236 283.995 136.017 293.185 137.339 302.479L139.23 312.703C140.268 316.462 140.763 318.817 140.714 319.767L143.084 331.726L152.189 364.692C156.103 378.861 161.224 396.273 167.552 416.929L186.841 486.764L188.758 493.704C189.397 496.017 190.325 498.248 191.541 500.396C194.083 506.221 197.804 511.241 202.703 515.456C207.81 519.299 213.543 522.026 219.902 523.639C228.519 525.542 237.875 525.048 247.97 522.159C254.027 520.426 257.592 519.25 258.666 518.631C267.416 514.254 274.03 507.213 278.507 497.507C283.193 487.43 284.058 477.041 281.102 466.342L279.711 462.995L278.946 458.534L276.55 449.859L272.596 435.545C267.404 416.749 263.872 406.214 261.999 403.942L247.603 407.594C237.508 410.483 231.635 412.319 229.984 413.104C225.241 415.085 221.436 415.394 218.57 414.03C215.623 412.377 213.431 408.948 211.993 403.743C210.906 400.934 208.086 391.288 203.533 374.805L201.616 367.865C199.699 360.925 200.008 355.844 202.541 352.623C205.363 349.319 209.659 346.842 215.427 345.191L224.632 343.025L235.568 340.363C236.93 339.661 241.649 338.155 249.725 335.844L267.03 330.892L284.768 325.816C287.941 324.908 289.92 324.185 290.705 323.649L294.479 322.101C298.229 321.028 301.721 321.276 304.956 322.847C308.191 324.417 310.64 326.525 312.304 329.169L317.196 341.81L320.265 351.229L327.021 377.378C331.032 389.647 335.594 405.036 340.706 423.543C345.099 439.447 347.431 448.453 347.701 450.559C348.74 454.319 349.769 459.172 350.79 465.121C351.731 470.78 352.039 475.84 351.715 480.302C351.791 486.209 351.09 491.558 349.612 496.349L348.887 502.173C348.403 506.056 347.809 508.41 347.103 509.236C345.657 515.266 342.968 522.433 339.036 530.734C331.83 547.462 319.275 562.288 301.371 575.212C298.646 576.616 296.275 577.607 294.256 578.184C286.579 581.941 278.992 584.893 271.493 587.039L249.189 592.485ZM202.757 569.733L200.62 567.068L201.579 570.539C202.058 572.274 203.098 573.224 204.7 573.39L202.757 569.733ZM213.326 574.197C212.958 573.991 211.909 574.135 210.178 574.63L210.298 575.064C210.666 575.271 211.139 575.291 211.716 575.126L212.94 576.18L213.326 574.197ZM196.607 567.749L194.59 565.518L191.947 564.402C192.316 564.608 193.077 564.547 194.23 564.217C195.672 563.804 196.731 562.565 197.405 560.5L191.947 564.402L190.55 569.482L196.607 567.749ZM188.034 560.373C186.627 556.408 185.555 554.218 184.819 553.805L183.521 554.176C183.312 554.548 183.368 555.312 183.687 556.469C184.007 557.625 184.719 558.514 185.824 559.134L188.034 560.373ZM158.801 545.805C160.58 544.36 161.35 543.203 161.11 542.336C160.791 541.179 159.894 540.187 158.421 539.361C158.723 542.707 158.849 544.855 158.801 545.805ZM176.186 561.424C177.051 561.176 177.588 560.866 177.797 560.495L179.288 559.132L177.198 558.326L175.108 557.52C175.334 554.959 175.944 553.224 176.938 552.316C178.22 551.324 180.696 550.148 184.366 548.786L176.898 542.03L180.053 533.17L171.254 538.497L177.471 547.483C175.145 550.332 173.406 551.922 172.252 552.252C171.964 552.335 170.779 551.426 168.698 549.525L168.671 552.809C168.911 553.677 171.416 556.548 176.186 561.424ZM165.051 543.08C165.259 542.709 165.652 542.44 166.229 542.275L166.974 541.594C169.122 540.355 169.508 538.372 168.132 535.646L166.808 539.301L165.051 543.08ZM195.029 556.967C194.811 548.293 194.856 542.82 195.162 540.548L199.056 539.434L198.696 538.132L195.981 538.441C193.962 539.019 192.848 539.494 192.639 539.866C190.363 541.765 189.296 544.099 189.438 546.866L188.952 553.558C191.082 554.509 193.108 555.645 195.029 556.967ZM216.701 561.063C216.798 559.162 216.767 557.923 216.607 557.345L215.043 560.133L216.701 561.063ZM228.974 568.315L230.944 568.688L232.915 569.06L234.406 567.697L235.896 566.334L228…9.535 315.999 459.163C318.356 457.553 319.605 458.132 319.747 460.899L320.852 461.519L322.629 462.883L322.655 459.599ZM327.454 438.1L324.499 437.541L321.231 437.541L326.416 444.482L327.454 438.1ZM112.433 317.095C112.353 316.806 112.915 316.021 114.117 314.741C115.031 313.544 115 312.304 114.024 311.024C111.539 313.295 110.392 315.339 110.583 317.157L112.433 317.095ZM88.2254 298.748C88.851 297.633 89.0041 296.497 88.6846 295.341C88.3651 294.184 87.613 293.151 86.4282 292.242L85.4366 300.483L85.989 300.793C86.3573 300.999 86.6213 301.392 86.7811 301.97L88.2254 298.748ZM103.933 308.295L107.974 304.33C106.869 303.71 105.884 303.524 105.018 303.772C104.153 304.019 103.175 305.547 102.083 308.356C102.66 308.191 102.988 308.253 103.068 308.542L103.933 308.295ZM250.837 388.883C250.101 388.469 249.901 387.746 250.238 386.714C250.575 385.681 250.6 385.206 250.311 385.289L251.057 384.607L250.431 385.723C250.223 386.094 250.358 387.148 250.837 388.883ZM90.1555 288.835C89.5476 287.761 88.2829 286.563 86.3616 285.241L85.7359 286.356L89.2902 289.083L90.1555 288.835ZM103.155 290.264L99.1144 294.228L99.7135 296.397L106.802 296.709L103.155 290.264ZM253.759 370.729C252.188 371.802 251.378 372.814 251.33 373.764C251.281 374.714 251.929 375.933 253.273 377.421L253.759 370.729ZM118.936 298.385C117.8 296.526 116.903 295.534 116.247 295.41C115.878 295.203 114.973 295.306 113.531 295.719C113.82 295.637 115.621 296.525 118.936 298.385ZM262.452 378.538L260.435 376.307C259.827 375.233 258.514 374.985 256.495 375.563C257.919 377.339 259.552 378.744 261.393 379.777L262.452 378.538ZM240.4 367.999C240.609 367.627 240.474 366.574 239.994 364.839C239.595 363.393 237.818 362.029 234.663 360.748L240.4 367.999ZM91.5532 283.755C93.9892 282.434 95.3115 281.587 95.5201 281.216C94.7835 280.802 94.2554 280.017 93.9359 278.861C92.1566 280.306 91.0584 281.4 90.6413 282.144L91.5532 283.755ZM106.928 288.716L108.253 285.06C107.148 284.441 106.307 284.213 105.73 284.378C104.896 285.865 104.559 286.898 104.719 287.476L106.928 288.716ZM274.033 379.904C274.419 377.922 274.452 376.352 274.133 375.195C273.893 374.328 273.077 373.626 271.683 373.088L265.653 371.538C265.445 371.909 265.54 372.818 265.939 374.264C266.259 375.421 267.483 376.474 269.613 377.425C271.743 378.376 273.216 379.202 274.033 379.904ZM104.146 282.023C103.778 281.817 103.434 281.135 103.114 279.978L101.89 278.925L99.8464 279.977C100.982 281.837 101.735 282.869 102.103 283.076L104.146 282.023ZM299.638 393.171C300.215 393.006 300.817 392.366 301.442 391.251C299.601 390.217 298.536 389.742 298.247 389.825C297.959 389.907 297.606 390.32 297.189 391.064C296.98 391.435 296.956 391.91 297.116 392.489C298.221 393.109 299.062 393.336 299.638 393.171ZM276.562 372.16C276.771 371.788 276.516 370.301 275.797 367.699L274.499 368.07C274.978 369.805 275.009 371.044 274.592 371.788C274.96 371.994 275.433 372.015 276.01 371.85L276.562 372.16ZM103.168 273.41C103.953 272.874 104.659 272.048 105.284 270.933L105.045 270.065C104.179 270.313 103.33 271.18 102.495 272.667L101.004 274.03L100.811 275.021L101.244 274.897L101.484 275.765L103.168 273.41ZM293.328 380.467C292.898 377.782 292.891 376.068 293.308 375.324L288.549 376.686C291.048 377.844 292.641 379.104 293.328 380.467ZM310.621 392.368C310.541 392.079 310.645 391.893 310.934 391.811L311.366 391.687C310.39 390.406 308.717 388.857 306.348 387.039L307.506 381.091C307.346 380.512 306.425 379.996 304.743 379.541C303.891 383.217 303.537 386.439 303.679 389.206C305.152 390.033 306.545 390.57 307.858 390.819L310.621 392.368ZM283.77 372.906L284.083 372.348L283.844 371.48C282.402 371.893 281.496 371.996 281.128 371.79C281.208 372.079 281.144 372.409 280.935 372.781C280.727 373.153 280.622 373.338 280.622 373.338L283.77 372.906ZM114.01 267.031C114.587 266.866 114.795 266.495 114.636 265.916C114.396 265.049 113.555 264.821 112.113 265.234C111.745 265.027 110.984 265.089 109.83 265.419L109.95 265.853L109.757 266.844C110.911 266.514 112.328 266.577 114.01 267.031ZM287.651 358.222C289.332 358.677 290.606 358.78 291.471 358.533C292.913 358.12 293.484 356.241 293.182 352.895C292.556 354.01 291.706 354.877 290.633 355.496L287.651 358.222ZM175.224 223.303L175.657 223.18C175.288 222.973 174.985 222.436 174.745 221.568L173.52 220.515C173.232 220.597 173.128 220.783 173.207 221.072L172.462 221.754L173.687 222.807C173.846 223.386 174.11 223.778 174.479 223.985L175.224 223.303ZM246.376 254.427C244.934 254.839 243.268 255.004 241.378 254.921C243.011 256.326 244.677 256.161 246.376 254.427ZM195.046 227.46C198.28 229.031 200.299 228.453 201.102 225.727L194.446 225.291L195.046 227.46ZM242.156 242.529L242.902 241.848L243.215 241.29C242.815 239.844 242.143 239.1 241.198 239.059L240.333 239.307L242.156 242.529ZM253.957 239.62C251.428 237.223 249.7 234.91 248.772 232.679L249.538 237.14C250.017 238.875 251.49 239.702 253.957 239.62ZM242.169 225.676L240.466 222.887C239.409 221.317 238.841 220.387 238.762 220.098L238.302 223.506C238.333 224.745 238.036 225.922 237.41 227.038L242.169 225.676Z" fill="#867265"></path>
<path d="M489.83 525.705C479.75 527.282 473.832 523.2 472.076 513.457C467.232 486.59 464.264 470.97 463.17 466.596L455.063 424.164L450.715 397.51L444.807 364.738L441.178 342.07C439.872 336.515 436.158 316.762 430.037 282.809L425.29 253.94L421.015 232.766C420.348 230.754 418.976 223.991 416.9 212.477L408.843 162.711L406.724 153.494C405.872 148.77 406.681 144.804 409.151 141.596C411.621 138.388 415.215 136.343 419.934 135.462L445.953 130.145L453.03 128.823L474.705 124.774C483.258 123.177 488.297 122.388 489.825 122.408C499.852 120.535 505.723 119.286 507.439 118.66L524.249 115.521C538.404 112.877 550.386 111.707 560.196 112.011C570.005 112.315 579.745 114.768 589.414 119.371C599.432 124.214 608.107 131.749 615.438 141.977C623.997 155.637 629.929 169.941 633.233 184.888C633.847 186.605 635.086 192.63 636.949 202.963C638.812 213.296 639.756 219.376 639.78 221.203L649.741 291.671L653.124 318.047C653.123 340.021 646.707 357.699 633.879 371.081L688.791 470.233L690.474 474.496C691.112 478.039 690.223 481.562 687.807 485.065C685.337 488.273 682.185 490.235 678.351 490.951L636.77 498.718C630.872 499.819 625.271 499.187 619.967 496.821C614.905 494.104 611.158 490.226 608.725 485.187L568.225 402.57L532.837 409.18L536.51 429.552L545.409 481.449L546.244 488.617L547.964 495.62C548.312 495.861 548.672 497.014 549.045 499.081C549.896 503.805 548.819 507.973 545.812 511.587C543.047 514.85 539.011 516.977 533.703 517.968L489.83 525.705ZM525.799 474.125C525.368 475.121 525.381 476.034 525.835 476.865C526.585 477.64 527.375 477.798 528.207 477.338L525.799 474.125ZM483.941 383.98L480.243 383.755L480.562 385.526C482.626 385.141 483.833 385.068 484.181 385.308L483.941 383.98ZM484.955 376.924L484.716 375.595L476.195 373.982L479.604 380.212L484.955 376.924ZM465.129 381.084L470.032 382.915C471.883 381.349 472.623 379.532 472.25 377.466C472.037 376.285 471.329 374.891 470.125 373.285C472.242 373.195 473.997 373.63 475.39 374.59L471.096 368.526L468.601 369.907L465.302 371.897L461.899 360.63L467.57 359.113L468.129 362.213C468.288 363.099 468.69 363.634 469.333 363.82C470.271 363.95 471.33 363.904 472.509 363.684L467.57 359.113L463.073 354.46C464.146 353.649 465.166 352.543 466.133 351.142L462.717 349.949L462.029 353.739C461.758 355.621 460.792 357.022 459.129 357.943L457.765 355.451C457.015 354.676 457.124 353.587 458.091 352.186C458.574 351.486 459.019 349.724 459.424 346.902L465.129 381.084ZM619.81 462.975L618.323 462.337C617.84 463.038 617.625 463.535 617.678 463.831C618.374 464.311 618.749 464.699 618.802 464.994L619.81 462.975ZM630.573 471.951C628.484 470.51 627.038 469.254 626.236 468.183L628.73 466.802C628.972 466.452 629.388 466.221 629.977 466.111L630.782 465.503C629.549 465.428 628.464 465.326 627.526 465.196C626.588 465.066 625.65 464.936 624.712 464.806L625.025 471.614L630.573 471.951ZM483.482 366.212C482.949 363.26 481.557 362.299 479.304 363.33L477.615 364.104C478.364 364.879 480.373 365.877 483.641 367.098L483.482 366.212ZM477.774 364.99C477.508 363.513 478.26 362.61 480.029 362.28C481.61 362.595 482.267 362.014 482.001 360.538L475.17 358.152L475.925 364.877L478.014 366.318L477.774 364.99ZM619.693 459.792L619.939 456.084L619.055 456.249L618.729 459.514L619.693 459.792ZM473.56 359.368C475.465 358.097 476.9 356.76 477.867 355.359C478.592 354.308 478.111 353.33 476.423 352.424L473.56 359.368ZM486.701 363.78L485.098 359.959L484.213 360.125C484.586 362.191 484.678 363.548 484.489 364.193L486.701 363.78ZM475.539 352.589C475.379 351.704 476.145 350.035 477.837 347.582L473.014 346.194L472.725 352.199C473.044 353.971 474.343 355.254 476.62 356.05L475.539 352.589ZM471.214 338.748C470.514 341.626 468.757 342.87 465.943 342.48C466.881 342.61 467.604 343.238 468.112 344.363C468.779 346.375 469.313 347.649 469.715 348.184C470.411 348.664 471.443 348.471 472.811 347.606L471.214 338.748ZM483.661 351.988C482.616 351.268 481.799 350.962 481.209 351.073L480.564 352.566L482.653 354.007L483.661 351.988ZM487.476 355.395L487.076 353.181L485.749 353.429L486.591 355.561L487.476 355.395ZM464.26 338.216C463.51 337.441 462.64 336.84 461.649 336.415C462.263 338.131 462.771 339.257 463.172 339.793C463.52 340.033 464.78 340.255 466.951 340.46L464.26 338.216ZM656.506 471.227C654.392 467.96 652.893 466.409 652.009 466.574C651.419 466.684 650.52 467.615 649.311 469.367C650.356 470.087 652.754 470.707 656.506 471.227ZM456.796 327.25C457.681 327.085 458.66 326.597 459.733 325.786C460.753 324.68 461.304 323.509 461.386 322.273C461.816 321.277 461.214 320.474 459.58 319.864L456.796 327.25ZM464.383 336.362L459.763 333.563C460.517 330.981 461.135 329.339 461.619 328.639C462.102 327.938 463.591 326.897 466.085 325.515C466.405 327.287 467.207 328.358 468.493 328.728C469.779 329.098 470.758 328.61 471.43 327.264C472.155 326.213 472.866 325.927 473.562 326.408L474.606 327.128L464.383 336.362ZM469.691 335.371C469.372 333.599 469.038 332.593 468.69 332.353C468.288 331.818 467.176 331.568 465.354 331.603C466.157 332.674 467.602 333.93 469.691 335.371ZM472.831 332.495C472.183 3….547C613.351 274.968 613.863 272.736 613.703 271.851C613.49 270.67 612.767 270.042 611.534 269.967C609.953 269.652 609.163 269.494 609.163 269.494L611.448 274.561L612.167 278.547ZM602.454 265.254L601.969 267.634C602.128 268.519 603.709 268.834 606.712 268.579L602.454 265.254ZM616.258 286.022C616.794 285.617 617.493 284.418 618.353 282.427C618.275 280.305 619.174 279.374 621.05 279.634L628.367 279.641L628.38 269.567L622.876 266.933C619.492 271.838 616.779 277.075 614.734 282.645L614.249 285.024C614.355 285.615 615.025 285.947 616.258 286.022ZM605.318 258.31C604.781 258.716 603.333 259.139 600.974 259.579L603.904 263.152L605.318 258.31ZM611.265 260.862C610.916 260.622 610.153 260.612 608.973 260.832L608.647 264.097C608.967 265.869 609.822 267.235 611.215 268.195L611.265 260.862ZM594.302 258.079C598.566 256.367 600.405 253.887 599.82 250.64L597.811 249.642L594.302 258.079ZM620.707 265.049L623.883 264.914C625.948 264.528 627.41 263.34 628.27 261.348L618.465 257.686L620.707 265.049L615.043 261.529C614.453 261.64 614.037 261.87 613.796 262.22L616.763 268.533L620.707 265.049ZM457.87 148.061C455.085 146.139 453.398 145.234 452.808 145.344C451.923 145.509 450.635 146.818 448.943 149.27L457.87 148.061ZM608.74 254.467C610.509 254.136 611.662 253.768 612.199 253.363C612.977 252.607 613.233 251.491 612.967 250.015C612.754 248.834 613.238 248.133 614.417 247.913C616.027 246.697 616.779 245.794 616.672 245.203C616.619 244.908 616.244 244.52 615.548 244.04L613.459 242.599L608.74 254.467ZM623.627 245.735L617.55 250.075C618.459 251.736 619.905 252.992 621.887 253.842L625.463 255.921L623.627 245.735ZM468.001 148.457L470.379 143.893L467.043 143.143C465.81 143.068 465.22 143.178 465.274 143.473L468.001 148.457ZM478.734 149.657L479.14 146.835L470.938 146.993L475.036 149.432L478.169 151.594L478.734 149.657ZM595.551 224.428C595.072 221.771 594.659 220.322 594.311 220.082L590.489 221.712C589.604 221.877 588.466 221.479 587.073 220.518C587.393 222.29 587.901 223.416 588.597 223.896C589.293 224.376 590.526 224.451 592.295 224.121C592.643 224.361 593.26 224.398 594.145 224.233C594.734 224.123 595.203 224.188 595.551 224.428ZM594.501 228.744C595.651 230.055 596.522 230.656 597.112 230.546C597.701 230.435 598.199 228.969 598.605 226.147C599.17 224.21 599.707 223.805 600.214 224.931C600.698 224.23 600.913 223.732 600.86 223.437L607.771 226.266L609.098 226.018C608.75 225.778 608.469 225.067 608.257 223.886C607.99 222.41 608.783 220.889 610.634 219.322C611.654 218.216 612.085 217.22 611.925 216.335C611.818 215.744 611.417 215.209 610.721 214.728C610.025 214.248 609.382 214.063 608.792 214.173C607.907 214.338 606.807 215.002 605.492 216.163C604.472 217.269 603.373 217.932 602.193 218.152L603.563 215.607L594.803 212.666L599.153 206.36L601.315 213.281L606.144 209.632L602.612 205.256L607.92 204.265L612.031 196.631L606.446 193.554L608.708 185.807C606.402 186.543 604.886 187.436 604.161 188.487C603.731 189.483 603.366 191.687 603.067 195.1C602.719 194.86 601.808 194.878 600.333 195.153C599.448 195.318 598.965 196.019 598.883 197.255L598.594 203.26L600.849 200.55C602.782 197.748 604.967 197.187 607.404 198.868C603.914 203.182 600.695 205.614 597.746 206.165C595.092 206.661 593.443 206.816 592.8 206.631L595.431 193.322L594.466 193.045L589.151 199.073C589.896 203.206 590.175 205.596 589.986 206.241C589.576 212.421 593.056 216.502 600.424 218.483L594.501 228.744ZM622.209 222.654C621.996 221.473 621.716 220.762 621.367 220.522C620.618 219.746 620.927 218.926 622.295 218.06C623.02 217.009 623.303 216.04 623.143 215.155L621.62 211.777C620.522 210.761 620.109 209.313 620.379 207.431L619.494 207.596C618.02 207.872 616.855 207.326 615.999 205.96C615.651 205.72 615.397 205.157 615.237 204.272C615.131 203.681 614.903 203.266 614.555 203.026L611.735 207.672L618.001 211.995L618.031 219.772L614.493 220.433C614.198 220.488 614.104 220.811 614.21 221.401L622.369 223.539L622.209 222.654ZM598.208 190.972C596.631 187.3 593.834 184.465 589.816 182.469C590.696 185.661 591.511 187.645 592.261 188.421C593.01 189.197 594.992 190.047 598.208 190.972ZM616.933 198.462C617.58 195.289 617.812 192.346 617.628 189.634L613.85 188.966L614.641 198.432C614.99 198.672 615.753 198.682 616.933 198.462ZM592.716 178.265L593.447 172.177C592.858 172.287 592.536 172.195 592.483 171.9L588.415 177.237L592.716 178.265ZM613.334 183.57C613.576 183.219 613.991 182.989 614.581 182.879L613.058 179.501C612.468 179.611 612.052 179.842 611.81 180.192L613.334 183.57ZM606.392 172.964C606.122 174.846 606.013 175.934 606.066 176.229C606.332 177.705 607.604 178.841 609.881 179.637L606.392 172.964ZM602.135 169.639C599.026 169.304 596.708 169.127 595.18 169.107C597.134 171.489 598.405 172.625 598.995 172.514L602.135 169.639ZM583.944 152.437C584.428 151.736 584.643 151.238 584.59 150.943C584.43 150.057 584.176 149.494 583.828 149.254L582.704 148.091L581.616 149.667L581.334 150.636C582.083 151.411 582.953 152.012 583.944 152.437ZM603.634 160.204L602.191 157.269L600.944 157.96L602.75 160.369L603.634 160.204Z" fill="#867265"></path>
<path d="M796.042 476.079C791.859 476.459 788.332 475.724 785.46 473.876C782.886 472.001 781.443 469.27 781.129 465.684C780.945 463.592 780.99 462.383 781.263 462.057C781.594 452.086 782.938 439.915 785.293 425.544L787.23 406.391L790.269 374.034L793.197 350.724L794.204 341.596C795.003 330.077 796.275 318.816 798.022 307.813L801.163 281.773L803.8 260.297L804.012 257.567C804.285 257.241 804.356 256.33 804.225 254.836C806.251 233.265 807.97 218.499 809.381 210.539L811.569 189.104C812.76 182.068 814.408 168.212 816.512 147.538L818.567 129.729L821.377 105.075C821.597 104.151 822.263 99.7229 823.376 91.79C823.633 87.8507 825.424 84.2241 828.747 80.9103C832.343 77.2705 836.233 75.2609 840.416 74.8815C841.338 75.099 844.638 74.9503 850.315 74.4353L870.442 72.1576C873.131 71.9137 874.937 71.9005 875.86 72.118C876.483 72.3627 878.14 72.363 880.829 72.1191C887.402 71.5228 891.123 71.0346 891.993 70.6544L903.606 69.1491C916.454 67.9837 925.34 69.738 930.267 74.412C932.945 77.4826 934.766 81.0828 935.73 85.2126C940.466 98.037 943.382 107.261 944.477 112.885C945.907 115.467 946.675 117.355 946.78 118.55L948.147 123.849L951.408 135.301L953.302 141.455L955.196 147.609L962.246 171.369L969.413 196.474L986.05 252.349L995.795 286.257L1000.19 300.318L1015.93 356.274L1024.64 383.499C1026.09 386.379 1028.59 394.285 1032.13 407.218C1035.97 420.124 1038.55 430.584 1039.85 438.599C1040.18 438.871 1040.44 440.202 1040.65 442.593C1041.31 450.065 1037 454.22 1027.74 455.061L981.132 459.289C975.754 459.777 971.792 459.232 969.244 457.656C966.996 456.053 965.052 452.765 963.412 447.793L954.115 413.844C952.565 406.454 951.061 401.319 949.604 398.438L944.802 384.867L886.054 389.744L866.783 391.493L864.745 404.329C863.266 408.078 862.451 412.52 862.298 417.655L860.188 439.986L858.33 460.036C857.71 466.719 854.114 470.359 847.541 470.956L810.792 474.289L796.042 476.079ZM806.415 455.257C805.792 455.012 804.869 454.795 803.648 454.604C802.4 454.115 801.478 453.897 800.88 453.952C799.685 454.06 798.692 454.753 797.9 456.029C801.643 457.497 804.858 458.109 807.547 457.865C809.639 457.676 811.392 457.065 812.807 456.033L806.415 455.257ZM810.252 452.65L810.701 452.609L809.121 450.041L807.58 447.922C812.271 449.906 814.928 451.021 815.552 451.265C814.252 450.178 813.251 449.064 812.549 447.923L815.977 445.804L814.083 439.65C810.849 440.546 809.363 442.488 809.624 445.477L808.807 446.455L807.58 447.922L804.443 448.206C806.445 450.435 808.096 452.092 809.395 453.179L810.252 452.65ZM803.91 436.959L803.674 434.269L801.881 434.431L802.565 437.081L803.91 436.959ZM831.427 441.692C830.594 439.056 830.015 437.603 829.69 437.331C829.145 437.983 828.723 438.322 828.424 438.349C829.425 439.464 829.991 440.768 830.122 442.262L831.427 441.692ZM836.517 417.282L834.686 416.997C832.893 417.159 831.978 418.748 831.941 421.764L836.517 417.282ZM832.657 414.469C833.554 414.388 833.936 413.6 833.806 412.106L828.758 411.208C828.889 412.703 828.818 413.613 828.545 413.939C829.741 413.83 830.501 413.912 830.826 414.184C831.15 414.456 831.761 414.551 832.657 414.469ZM842.713 415.816L841.503 412.312L840.646 412.841L840.198 412.882L840.472 416.02L842.713 415.816ZM836.645 403.263C836.32 402.992 834.963 402.964 832.572 403.181L832.69 404.526L836.763 404.608L836.645 403.263ZM819.602 384.025C822.254 386.796 824.047 386.634 824.98 383.537L819.602 384.025ZM822.992 319.555C822.913 318.658 823.146 317.884 823.692 317.232L817.865 317.761L817.983 319.106C819.477 318.97 820.387 319.038 820.711 319.31C821.036 319.582 821.796 319.663 822.992 319.555ZM983.007 434.267L981.505 432.596L979.791 433.655L980.357 434.959L983.007 434.267ZM1000.51 438.102C1001.4 438.02 1001.99 437.817 1002.26 437.491C1001.61 436.947 1001.25 436.227 1001.17 435.331C1000 435.738 998.571 436.621 996.883 437.979C997.208 438.25 997.397 438.685 997.449 439.283L1000.51 438.102ZM985.319 424.569C983.474 424.133 982.201 423.345 981.499 422.204C980.796 421.063 980.328 419.147 980.092 416.458C977.702 416.674 976.625 418.128 976.86 420.817C977.992 423.426 980.052 424.595 983.039 424.324C983.364 424.595 984.124 424.677 985.319 424.569ZM829.874 294.983C830.121 294.358 830.152 293 829.969 290.908C829.865 289.712 829.513 289.142 828.916 289.196C827.123 289.358 825.941 289.616 825.37 289.969L827.846 292.456L829.874 294.983ZM982.601 409.001L979.268 407.044C979.268 407.044 979.131 407.207 978.859 407.533C978.586 407.859 978.301 408.035 978.002 408.062L980.926 410.508L982.601 409.001ZM999.464 421.026C999.307 419.233 998.904 418.065 998.254 417.521C997.279 416.706 993.699 415.374 987.515 413.525C987.567 414.123 986.678 416.011 984.848 419.189L990.596 417.764C991.791 417.656 992.876 418.009 993.851 418.824C994.8 419.341 995.761 420.007 996.736 420.822C997.711 421.637 998.686 422.452 999.661 423.268L999.464 421.026ZM827.823 287.036C826.445 285.052 825.73 283.761 825.677 283.164C825.625 282.566 825.924 282.539 826.574 283.082C826.899 283.354 827.36 283.463 827.957 283.409L831.173 284.021L835.671 278.642L839.391 274.69C839.779 272.245 840.259 270.84…1 118.208C870.939 119.104 871.141 119.689 871.466 119.96L872.519 121.672C872.87 122.243 873.586 123.533 874.665 125.544L875.113 125.503ZM884.973 124.609L882.284 124.853C880.491 125.016 879.674 125.994 879.831 127.787L884.973 124.609ZM931.356 164.231C929.768 159.856 927.928 157.764 925.837 157.953L922.33 159.175L931.356 164.231ZM910.42 152.122C913.109 151.879 915.758 151.186 918.369 150.046C916.419 148.415 914.697 147.668 913.204 147.803C912.931 148.129 912.197 148.346 911.002 148.455C909.209 148.618 907.786 147.843 906.733 146.131L904.375 144.99L902.016 143.848L905.657 138.999L905.13 138.143C904.831 138.17 904.669 138.034 904.643 137.736L899.383 139.568L900.923 141.688L902.016 143.848C903.174 146.755 904.364 148.304 905.585 148.494C907.314 151.049 908.926 152.258 910.42 152.122ZM890.554 136.755C892.047 136.619 892.768 136.252 892.716 135.655L896.766 130.317C894.349 130.235 891.763 128.21 889.006 124.243L888.133 129.745C890.408 131.647 890.701 133.277 889.013 134.635L890.554 136.755ZM874.054 113.4L874.014 112.952L872.591 112.177C872.266 111.905 871.506 111.823 870.311 111.932L869.981 113.317C871.176 113.209 871.936 113.291 872.261 113.562L873.684 114.337L874.054 113.4ZM939.854 168.43C940.945 167.126 941.398 165.428 941.215 163.336C940.916 163.363 940.754 163.227 940.728 162.928L939.831 163.01L939.854 168.43ZM864.95 107.448C866.391 106.715 867.956 105.669 869.644 104.311C867.564 101.186 865.575 99.1075 863.677 98.0746L861.577 105.043C863.228 106.7 864.352 107.502 864.95 107.448ZM911.663 145.684C912.675 143.483 913.115 141.636 912.984 140.142C912.801 138.05 911.572 136.053 909.298 134.15L911.663 145.684ZM900.217 133.619C902.618 130.087 903.902 127.561 904.07 126.04C903.966 124.844 903.14 124.015 901.594 123.553L901.987 128.036L897.678 125.264L900.217 133.619ZM863.458 90.4132C860.497 90.983 859.055 91.7163 859.134 92.6128C859.212 93.5094 860.213 94.6235 862.137 95.9552L863.458 90.4132ZM888.238 110.306C887.509 108.866 886.398 108.213 884.904 108.349C883.709 108.457 882.975 108.674 882.703 109C880.962 109.761 879.93 110.005 879.605 109.733C880.711 112.043 881.861 113.143 883.056 113.035L886.115 111.854L888.238 110.306ZM933.803 150.905C932.581 150.715 931.431 149.614 930.351 147.603C929.298 145.891 928.024 145.103 926.531 145.239L928.15 148.255C929.035 151.488 930.919 152.371 933.803 150.905ZM898.261 121.596L900.753 119.111L895.627 117.317L895.006 120.536C894.24 122.112 894.631 123.131 896.177 123.593L898.261 121.596ZM918.575 136.924L918.536 136.475C918.379 134.682 918.138 133.65 917.813 133.378C917.514 133.405 917.092 133.745 916.547 134.397L917.561 135.66C917.613 136.258 917.802 136.693 918.127 136.964L918.575 136.924ZM902.68 115.321C902.355 115.05 902.127 114.167 901.997 112.672L900.495 111.001C898.87 109.642 897.513 109.615 896.422 110.919L901.997 112.672L900.77 114.139L899.543 115.606L902.68 115.321ZM930.015 138.597C929.155 135.663 928.673 133.598 928.569 132.402C929.465 132.321 930.471 131.778 931.588 130.773L930.842 122.255C928.74 125.76 927.007 128.327 925.644 129.956L922.389 128.896L919.583 127.795C918.44 128.501 917.771 129.466 917.577 130.688L925.392 132.239L923.505 136.476L930.015 138.597ZM910.368 130.89C916.757 128.202 919.567 124.182 918.798 118.83C921.188 118.613 923.072 119.496 924.45 121.48C925.179 122.92 925.692 123.626 925.991 123.599C926.562 123.246 927.38 122.268 928.444 120.666C927.145 119.579 926.104 118.016 925.324 115.978C922.347 112.935 919.137 110.666 915.693 109.171L918.915 120.174L909.151 116.994L908.042 119.805C907.25 121.082 906.894 122.169 906.972 123.065C907.051 123.962 907.902 125.09 909.527 126.448C908.735 127.725 908.418 129.26 908.575 131.053C908.706 132.547 909.083 133.417 909.707 133.661C910.33 133.906 911.675 133.784 913.74 133.296L910.368 130.89ZM903.649 105.745L904.018 104.808C903.421 104.862 901.901 104.698 899.458 104.318C900.119 101.547 900.735 99.9845 901.306 99.6314C901.852 98.9795 903.469 98.5316 906.158 98.2876L906.707 104.564L914.208 102.528C913.401 100.191 912.361 98.6286 911.087 97.8404C909.709 95.8569 908.066 96.0059 906.158 98.2876L901.928 96.4121C898.862 95.7866 896.679 94.9303 895.379 93.8433C894.053 92.4574 893.285 90.5691 893.076 88.1782L883.57 93.1072L880.858 87.931C880.47 90.3761 879.867 92.0876 879.049 93.0654C878.231 94.0433 877.628 95.7548 877.24 98.1999L883.066 97.6713L879.621 104.762C883.726 103.485 886.179 100.552 886.982 95.9606L894.662 101.138L893.593 104.398L898.64 105.295L903.24 106.234L903.649 105.745ZM913.004 109.415L914.113 106.603C913.217 106.684 912.743 106.426 912.69 105.828C912.25 107.676 912.056 108.898 912.108 109.496L913.004 109.415ZM913.132 95.3957C913.625 94.1461 914.663 92.2446 916.246 89.6911L913.479 89.0384C911.686 89.2011 911.023 88.5081 911.49 86.9596L912.229 85.0852C909.503 88.3448 907.705 90.1647 906.835 90.5448C904.796 91.3323 903.464 91.6037 902.841 91.359L903.446 93.1115L911.552 92.828L913.132 95.3957ZM919.328 93.93C918.08 93.4407 917.359 93.8073 917.165 95.0299C917.49 95.3016 919.634 95.7096 923.597 96.2538L919.328 93.93Z" fill="#867265"></path>
<path d="M1148.1 451.302C1142.11 450.957 1137.32 449.121 1133.74 445.794C1130.47 442.469 1128.85 438.106 1128.89 432.707L1129.12 400.307L1129.69 384.561L1130.06 333.713L1130.29 301.763L1129.71 258.108L1130.35 232.462L1130.23 187.01L1130.78 173.513C1131.09 172.016 1131.27 167.667 1131.32 160.467L1130.74 116.812L1131.83 90.269L1131.96 73.1695C1132.29 68.6719 1134.12 64.7855 1137.44 61.5105C1141.07 57.9377 1145.13 56.1683 1149.63 56.2022C1156.23 56.552 1178.28 56.8682 1215.77 57.151C1219.67 57.1804 1223.71 58.7109 1227.89 61.7425C1232.07 64.7741 1234.89 68.2455 1236.37 72.1566L1242.52 91.5537L1250.44 116.364L1267.63 166.445L1278.18 200.276C1280.53 207.793 1283.03 215.163 1285.67 222.383L1294.92 249.903C1297.86 258.326 1301.09 269 1304.59 281.927C1306.94 289.445 1310.03 297.418 1313.87 305.848L1312.07 305.834C1312.68 303.439 1313 301.791 1313 300.891C1313.11 286.791 1313.02 278.39 1312.74 275.688C1312.79 268.488 1312.67 264.287 1312.38 263.085L1312.07 243.732L1311.33 222.126L1311.41 211.326L1310.77 175.321L1310.38 166.317L1309.61 148.761L1310.12 140.665C1310.43 139.467 1310.33 132.866 1309.81 120.862C1309.52 119.36 1309.41 113.809 1309.48 104.209C1309.54 96.7091 1309.42 92.208 1309.13 90.7058L1308.79 76.3028C1308.83 70.9029 1310.66 66.4166 1314.29 62.8439C1318.21 59.2734 1322.87 57.6585 1328.27 57.9992L1366.52 58.2876C1372.52 58.3328 1377 60.7667 1379.97 65.5892C1381.75 67.4027 1382.63 70.1094 1382.61 73.7093L1381.97 100.255C1381.91 107.455 1382.03 111.806 1382.32 113.308C1382.61 115.11 1382.73 118.412 1382.7 123.211C1382.39 124.709 1382.22 127.108 1382.2 130.408L1382.07 147.957C1382.36 149.76 1382.48 153.061 1382.45 157.86C1382.14 159.358 1381.97 161.907 1381.94 165.507L1381.81 183.506L1381.72 195.206L1381.65 205.106L1381.16 211.402L1381.55 218.605L1381.9 233.009L1381.35 246.505C1381.04 247.702 1380.86 251.901 1380.81 259.101L1381.55 281.157L1381.3 315.356C1381.15 335.756 1380.91 347.754 1380.59 351.352C1380.44 371.451 1380.51 383.302 1380.78 386.904L1380.52 422.004L1380.89 434.157C1380.85 439.556 1379.62 443.747 1377.19 446.729C1375.07 449.713 1371.31 451.485 1365.9 452.044C1363.8 452.328 1357.2 452.429 1346.1 452.345L1311.46 451.634C1304.86 451.584 1299.76 450.795 1296.17 449.268C1292.89 447.443 1290.5 445.475 1289.02 443.364C1287.83 440.955 1286.07 436.592 1283.71 430.274L1274.45 404.103L1270.48 392.823L1253.28 344.542L1235.2 294.004L1220.65 252.493L1201.24 199.695C1200.94 199.093 1200.65 198.491 1200.35 197.889C1200.06 196.986 1199.76 196.084 1199.47 195.182L1201.27 195.196L1201.17 208.245L1201.1 218.145L1200.6 224.891L1200.99 232.995C1200.86 251.894 1200.93 262.995 1201.2 266.297L1202.42 345.959L1202.67 435.513C1202.6 444.813 1197.92 449.878 1188.61 450.707C1188.01 451.003 1186.51 451.142 1184.11 451.123C1182.01 451.108 1180.66 450.947 1180.06 450.643C1175.86 450.611 1173.01 450.74 1171.51 451.028L1148.1 451.302ZM1166.71 429.842L1172.13 427.182L1167.67 421.299C1167.37 421.296 1166.92 421.593 1166.32 422.188L1168.54 426.255L1164.04 426.221L1163.17 421.715L1158.65 424.381L1158.63 426.631L1157.28 427.52L1153.69 425.693L1150.07 428.816L1150.08 426.566C1150.11 422.966 1149.22 421.01 1147.43 420.696C1147.4 423.996 1147.24 425.795 1146.94 426.092C1146.32 427.888 1146.02 428.936 1146.01 429.236C1146 430.736 1147.04 432.093 1149.14 433.309C1151.24 432.125 1153.35 431.541 1155.45 431.557C1157.25 431.57 1160.09 432.042 1163.99 432.971C1168.78 433.907 1171.93 434.231 1173.43 433.942L1166.71 429.842ZM1153.29 418.49C1153.32 414.59 1154.7 411.301 1157.42 408.621L1155.19 405.004L1153.29 418.49ZM1178.85 431.733C1178.25 431.129 1177.66 429.924 1177.07 428.12L1174.81 429.453L1177.49 432.623L1178.85 431.733ZM1177.12 421.82C1175.93 420.011 1173.99 419.396 1171.28 419.976L1176.26 416.863L1171.34 411.876L1170.89 412.323C1171.19 412.625 1171.33 413.226 1171.33 414.126L1172.21 416.833C1168.92 414.408 1166.38 413.039 1164.59 412.725C1163.69 412.418 1162.04 412.256 1159.64 412.238C1160.23 413.742 1160.67 414.646 1160.97 414.948C1161.57 414.952 1162.77 414.662 1164.58 414.075L1165.45 417.682L1171.73 419.979C1172.31 423.584 1174.55 424.951 1178.45 424.08L1177.12 421.82ZM1183.79 432.221L1183.82 428.621L1182.02 429.057C1182.31 429.359 1182.46 430.41 1182.44 432.21L1183.79 432.221ZM1185.68 420.084L1185.23 420.081L1183.85 424.571L1185.2 425.031L1185.68 420.084ZM1183.01 416.014C1180.61 415.696 1179.11 415.685 1178.51 415.98C1178.21 416.278 1178.05 417.177 1178.04 418.677L1183.01 416.014ZM1175.85 411.01C1176.15 410.712 1176.9 410.568 1178.1 410.577L1182.6 411.061C1184.1 411.072 1185.45 410.482 1186.66 409.291C1185.47 408.082 1184.88 406.578 1184.89 404.778C1184.02 401.171 1182.83 399.362 1181.33 399.351C1178.93 399.333 1176.22 400.813 1173.2 403.79C1170.19 405.867 1166.73 406.741 1162.83 406.412L1166.4 410.489L1176.79 405.167L1175.85 411.01ZM1157.6 383.422C1158.21 381.926 1158.82 380.881 1159.42 380.285L1154.93 379.351C1155.82 381.158 1156.71 382.515 1157.6 383.422ZM1166.2 375.836C1167.1 376.743 1168.14 377.201 1169.34 377.21C1170.54 377.219 1171.7…1167.48 77.4874L1172.39 82.0246L1172.86 79.3281ZM1220.24 123.787L1218.43 125.123C1217.23 125.414 1216.62 126.159 1216.61 127.359L1217.49 130.966L1220.24 123.787ZM1204.51 121.418L1210.83 117.865C1210.54 117.263 1210.1 115.91 1209.51 113.805C1208.93 111.401 1207.89 110.043 1206.39 109.732L1201.92 105.648L1201.87 112.398L1206.39 109.282L1207.24 117.388L1202.74 116.904L1204.51 121.418ZM1243.45 149.612C1242.57 147.806 1241.38 146.147 1239.89 144.635C1239.59 144.933 1239.43 145.832 1239.42 147.332C1239.41 148.832 1240.75 149.592 1243.45 149.612ZM1239.01 141.929L1235.42 140.101L1232.72 140.531L1232.71 141.881L1239.01 141.929ZM1330.14 234.418C1330.73 235.323 1331.48 235.778 1332.38 235.785L1335.09 234.456L1330.14 234.418ZM1189.92 85.7568C1189.62 85.4546 1189.02 85.3001 1188.12 85.2933L1187.64 88.8898L1188.99 89.35L1189.92 85.7568ZM1351.59 254.381C1353.69 255.296 1354.88 255.755 1355.18 255.758C1355.49 255.46 1355.79 254.562 1356.1 253.065L1352.05 253.934C1352.04 254.234 1351.89 254.383 1351.59 254.381ZM1215.31 121.499C1217.72 119.117 1218.94 116.877 1218.96 114.777C1218.97 113.277 1218.53 111.623 1217.64 109.817L1216.71 114.76C1216.7 115.96 1216.23 118.206 1215.31 121.499ZM1199.71 100.231C1201.51 99.6447 1202.42 98.7515 1202.43 97.5515C1202.44 96.6515 1201.99 95.8982 1201.1 95.2914C1200.2 94.3846 1199.46 93.929 1198.86 93.9245C1197.66 93.9154 1196.91 94.0598 1196.6 94.3575L1193.89 95.6871L1199.71 100.231ZM1226.17 112.581L1220.76 113.89C1221.96 114.199 1222.55 114.954 1222.55 116.154L1222.07 119.75C1222.06 120.65 1222.96 121.407 1224.75 122.021L1226.17 112.581ZM1211.79 109.772C1213.61 107.386 1214.52 105.893 1214.52 105.293C1214.53 104.993 1213.63 104.386 1211.84 103.473C1212.14 102.875 1212.31 100.626 1212.34 96.7262L1205.14 96.2219L1206.48 98.032L1206.92 98.9354C1206.92 99.5354 1207.06 99.9865 1207.36 100.289L1210.53 97.1626L1211.41 100.769C1211.4 102.269 1211.54 103.17 1211.84 103.473L1208.66 107.499L1211.79 109.772ZM1190.37 85.7602C1193.07 85.7806 1194.87 85.0442 1195.78 83.551L1197.15 81.3112L1195.81 79.9511C1195.5 80.5488 1193.69 82.4852 1190.37 85.7602ZM1208.31 93.9957C1209.82 92.5071 1210.57 91.6128 1210.58 91.3128C1210.58 90.4128 1209.24 89.3526 1206.55 88.1323L1208.31 93.9957ZM1223.07 106.257C1222.18 104.751 1221.74 103.547 1221.74 102.647C1221.76 100.847 1222.37 99.3519 1223.58 98.161L1225.85 95.028C1225.55 94.7258 1225.1 94.5724 1224.5 94.5678C1223.3 94.5588 1222.55 95.1531 1222.24 96.3508L1220.88 98.1406C1219.66 99.9315 1218.31 100.221 1216.82 99.01C1217.71 100.817 1218.3 102.171 1218.59 103.074C1219.18 103.978 1219.63 104.581 1219.93 104.884C1220.23 105.186 1221.27 105.644 1223.07 106.257ZM1204.32 85.8654C1207.32 85.888 1208.83 83.6494 1208.86 79.1495L1202.52 85.8518L1204.32 85.8654ZM1214.14 95.8398C1214.75 95.2443 1216.85 94.3602 1220.46 93.1874C1218.67 92.5738 1217.77 91.517 1217.79 90.0171L1219.16 86.4273C1220.07 84.6342 1219.94 83.1331 1218.74 81.9241C1218.13 83.4195 1217.38 84.4638 1216.47 85.057C1215.57 85.3502 1214.22 85.4901 1212.42 85.4765L1209.27 85.4527C1213.16 87.2821 1215.09 89.0967 1215.08 90.8967L1214.14 95.8398ZM1223.18 91.4078L1224.08 90.9646C1224.38 90.9668 1224.53 90.818 1224.53 90.518L1223.65 88.2612L1222.75 88.2544L1223.18 91.4078ZM1348.46 127.903C1348.77 127.606 1348.77 127.006 1348.48 126.103C1348.18 125.801 1348.03 125.2 1348.04 124.3L1342.17 126.956C1343.66 127.867 1344.86 128.476 1345.76 128.783C1346.65 129.09 1347.56 128.797 1348.46 127.903ZM1337.74 117.922C1337.73 118.222 1338.33 118.227 1339.54 117.936L1341.79 117.953L1337.78 111.622C1336.57 112.513 1335.97 113.409 1335.96 114.309L1336.85 116.116L1337.74 117.922ZM1356.12 127.061L1354.81 122.101L1353.45 122.541L1354.32 127.498L1356.12 127.061ZM1353.51 114.891C1351.42 113.675 1350.07 113.065 1349.47 113.061C1348.27 113.052 1347.21 114.244 1346.3 116.637L1353.51 114.891ZM1331.11 100.322L1337.01 94.0661C1337.31 93.7684 1337.17 92.5673 1336.59 90.4628L1330.72 92.2186L1330.77 85.9188C1329.26 86.5075 1328.51 87.2518 1328.5 88.1518C1328.5 88.7518 1328.94 89.5051 1329.84 90.4119L1330.72 92.2186C1331.32 92.8231 1331.61 93.2754 1331.61 93.5754L1330.7 95.3686L1330.69 96.7185L1331.11 100.322ZM1336.46 108.012C1337.66 107.721 1338.27 106.676 1338.28 104.876L1338.3 101.726C1339.49 102.935 1341.59 103.551 1344.59 103.574C1346.69 103.589 1350.6 102.719 1356.31 100.962L1352.72 99.1347C1350.32 100.017 1348.06 100.45 1345.96 100.434L1340.12 99.9397C1339.82 99.9374 1339.06 100.532 1337.85 101.723L1335.11 107.102C1335.41 107.104 1335.86 107.408 1336.46 108.012ZM1358.91 114.932C1361.32 113.45 1362.54 111.209 1362.56 108.209C1362.26 107.607 1362.12 106.406 1362.13 104.606C1359.42 105.785 1358.06 107.725 1358.04 110.425L1358.91 114.932ZM1347.34 97.294C1347.64 96.9963 1348.09 96.8497 1348.69 96.8542L1346.96 86.4909L1344.71 86.924L1347.34 97.294ZM1364.92 92.9265L1363.55 95.6162L1362.63 98.7594C1362.62 99.6593 1363.36 100.865 1364.85 102.376L1364.92 92.9265ZM1363.18 83.9132C1360.78 83.8951 1359.58 84.486 1359.57 85.686L1361.79 89.7528L1363.18 83.9132Z" fill="#867265"></path>
<path d="M1591.58 477.676C1569.27 474.708 1550.31 466.968 1534.7 454.454C1519.12 441.642 1507.7 426.555 1500.42 409.192C1493.15 391.829 1490.37 374.792 1492.08 358.079L1492.82 346.392L1494.32 336.143L1495.88 320.923C1496.42 318.567 1497.41 310.375 1498.84 296.348L1502.32 262.326L1501.88 262.278L1504.94 232.285L1510.25 180.356L1511.17 171.402C1512.08 162.449 1514.49 152.146 1518.4 140.492C1518.97 137.838 1520.34 134.815 1522.49 131.423L1527.98 122.049C1533.04 113.836 1537.66 108.443 1541.84 105.87C1546.03 100.28 1550.71 95.7981 1555.88 92.4239C1561.35 89.0814 1570.09 84.7278 1582.1 79.363C1588.76 76.1469 1596.04 74.2036 1603.95 73.5331L1616.67 73.0697C1622.72 72.8065 1628.29 72.9435 1633.36 73.4808L1644.01 75.5138L1645.35 75.6561C1647.44 75.8773 1648.8 75.8703 1649.43 75.635C1650.98 75.1962 1652.32 75.3384 1653.45 76.0617C1675.68 79.9242 1693.98 88.1984 1708.36 100.884C1722.78 113.272 1733.29 128.413 1739.91 146.31C1742.52 153.223 1744.18 161.997 1744.9 172.632C1745.92 183.299 1746.08 192.065 1745.38 198.929C1744.89 203.704 1744.45 206.523 1744.06 207.387L1743.02 213.159L1742.55 222.16C1742.76 223.087 1742.59 226.237 1742.04 231.608C1741.76 234.294 1741.43 236.069 1741.04 236.933C1740.65 237.797 1740.31 239.721 1740 242.705L1739.06 260.707L1737.15 274.985L1735.46 291.548L1733.58 309.903L1732.98 320.246C1733.18 321.173 1732.98 324.621 1732.37 330.59C1731.64 337.753 1731.06 341.915 1730.64 343.077L1728.91 355.565C1728.55 359.146 1728.47 361.4 1728.67 362.327C1728.85 363.552 1728.74 366.105 1728.34 369.985C1727.12 381.922 1725.49 392.006 1723.44 400.236L1719.89 408.458L1716.38 416.231C1713.95 422.309 1710.65 427.993 1706.49 433.284C1702.66 438.309 1696.54 445.052 1688.14 453.513C1686.79 454.879 1683.21 457.516 1677.38 461.424L1666.8 467.544C1665.48 468.611 1664.05 469.364 1662.5 469.803C1660.98 469.943 1659.39 470.681 1657.75 472.015C1652.64 474.792 1645.04 476.853 1634.95 478.198L1625.33 479.44C1620.73 480.16 1609.48 479.572 1591.58 477.676ZM1522.21 412.858C1522.39 414.083 1522.61 414.861 1522.88 415.191C1523.15 415.521 1523.89 415.6 1525.12 415.428L1522.21 412.858ZM1518.19 310.616L1518.33 309.273L1514.61 310.237C1514.91 310.268 1515.05 310.433 1515.01 310.732C1514.98 311.03 1515.12 311.195 1515.42 311.227L1518.19 310.616ZM1616.69 440.061C1618.18 440.219 1619.05 439.105 1619.29 436.717C1619.47 434.926 1619.74 433.748 1620.1 433.183C1620.76 432.65 1621.82 432.611 1623.28 433.067L1618.28 428.917L1615.39 439.472L1616.69 440.061ZM1645.58 449.458L1638.77 454.166C1639.75 453.365 1640.69 453.012 1641.59 453.107C1642.78 453.234 1643.91 453.957 1644.98 455.277C1646.32 456.927 1647.29 457.784 1647.89 457.847L1645.58 449.458ZM1642.68 446.887C1642.97 446.919 1643.45 446.668 1644.11 446.134L1640.49 441.679C1639.9 441.615 1639.57 441.882 1639.51 442.479L1642.68 446.887ZM1524.72 295.469L1521.32 293.299L1520.33 294.1L1523.64 297.165L1524.72 295.469ZM1634.64 436.986L1637.03 431.356L1635.28 430.719L1633.3 436.844L1634.64 436.986ZM1519.23 287.195L1524.03 284.536L1524.16 283.193L1514.36 281.702L1519.23 287.195ZM1647.94 435.227L1644.9 434C1643.71 433.873 1642.06 435.208 1639.97 438.002L1647.94 435.227ZM1532.64 297.666L1533.23 291.846L1532.34 291.751C1531.98 292.316 1531.63 294.24 1531.29 297.523L1532.64 297.666ZM1526.84 288.001C1528.15 286.934 1528.92 285.356 1529.13 283.266L1528.69 278.695L1524.53 279.611L1526.84 288.001ZM1658.54 437.708L1659.27 430.545L1659.92 424.278L1642.24 420.143L1640.45 419.954C1638.96 419.796 1637.74 419.968 1636.78 420.47C1636.13 421.003 1635.54 422.299 1635.03 424.356L1633.95 426.052L1632.38 428.148L1641.59 430.935C1641.89 430.966 1642.86 430.315 1644.51 428.981C1643.44 427.661 1642.75 426.985 1642.45 426.953L1641.56 426.858C1639.47 426.637 1638.29 424.853 1638.03 421.507L1647.29 423.846C1649.95 424.429 1652.68 425.773 1655.48 427.88L1654.42 438.176L1658.54 437.708ZM1522.13 272.117C1521.83 272.085 1521.28 271.574 1520.48 270.584C1519.64 269.893 1518.67 270.544 1517.56 272.538L1521.54 273.412L1522.13 272.117ZM1521.88 265.755L1519.02 262.737L1517.04 264.338C1518.15 265.36 1519.08 266.515 1519.86 267.803L1521.88 265.755ZM1666.93 448.552C1669.38 448.208 1670.98 447.321 1671.73 445.892L1673.35 443.349L1674.56 440.31C1674.65 439.414 1674.12 438.754 1672.95 438.329C1672.09 437.936 1671.55 437.276 1671.35 436.349C1670.54 435.359 1669.74 434.369 1668.94 433.379C1668.13 432.389 1667.57 432.027 1667.24 432.294C1662.82 434.239 1660.86 435.691 1661.36 436.649L1661.27 437.545C1661.12 439.037 1660.57 440.034 1659.61 440.536C1658.98 440.771 1657.76 440.943 1655.94 441.052C1653.85 440.831 1651.52 439.981 1648.96 438.503L1650.92 441.426L1652.04 443.806C1655.62 444.186 1658.35 444.022 1660.23 443.317C1662.14 442.313 1663.85 440.382 1665.35 437.524L1669.04 445.608C1667.55 445.45 1666.67 445.206 1666.4 444.876C1664.94 444.419 1664.05 444.325 1663.72 444.591C1663.42 444.56 1663.05 445.274 1662.59 446.735C1662.86 447.065 1663.41 447.576 1664.25 448.268C1665.41 448.692 1666.31 448.787 1666.93 448.552ZM1551.7 296.971C1548.42 296.623 1546….32 234.352 1693.74 235.089C1692.18 235.528 1689.77 235.574 1686.48 235.226L1689.11 240.482L1690.23 242.863C1689.63 242.799 1689.17 242.901 1688.84 243.168C1688.51 243.435 1687.63 243.191 1686.2 242.436L1684.5 241.351L1682.02 247.876C1683.34 246.809 1685.52 246.135 1688.56 245.854C1691.55 246.17 1693.55 245.779 1694.56 244.68C1693.58 242.464 1693.14 240.909 1693.23 240.013C1693.32 239.118 1694.76 238.365 1697.53 237.754L1700.03 244.353L1695.31 250.642L1703.05 254.629L1698.47 259.574L1702.67 262.734ZM1585.95 99.2289C1585.65 99.1973 1585.23 98.8514 1584.7 98.1913C1584.63 98.7882 1583.95 99.6203 1582.63 100.688C1580.99 102.022 1580.54 103.483 1581.28 105.07L1585.95 99.2289ZM1718.65 261.26L1718.79 259.917L1711.05 255.93L1712.61 262.882L1718.65 261.26ZM1593.75 111.369L1593.8 110.921L1592.91 106.302L1591.97 106.655L1591.88 107.55C1591.46 108.712 1591.94 109.969 1593.3 111.321L1593.75 111.369ZM1593.38 97.3014C1593.11 96.9713 1592.68 96.7747 1592.08 96.7115L1590.19 101.941C1590.46 102.271 1590.89 102.468 1591.49 102.531L1593.38 97.3014ZM1715.06 247.756C1715.21 246.264 1716.18 245.612 1717.97 245.802C1719.4 246.557 1720.19 246.188 1720.35 244.696L1714.45 240.451L1713.31 247.118L1714.92 249.099L1715.06 247.756ZM1716.34 235.221C1716.43 234.326 1717.63 232.944 1719.93 231.076L1715.68 228.364L1713.75 234.041C1713.56 235.832 1714.45 237.435 1716.42 238.85L1716.34 235.221ZM1691.7 206.365L1694.25 203.468L1697.2 205.591C1698.57 206.942 1699.92 207.085 1701.23 206.017L1699.72 203.142L1701.43 195.178L1700.54 195.084L1699.72 203.142L1694.21 203.916L1689.71 194.841L1688.47 206.928L1691.7 206.365ZM1690.68 220.737L1695.68 224.888L1697.84 221.496L1708.22 221.691L1707.69 218.015L1710.52 216.956L1706.45 212.453C1707.89 210.192 1708.94 208.795 1709.6 208.261C1710.25 207.727 1711.97 207.155 1714.75 206.544C1714.56 208.335 1715.04 209.592 1716.17 210.315C1717.3 211.038 1718.38 210.85 1719.4 209.752C1720.38 208.951 1721.14 208.881 1721.68 209.541L1722.48 210.531L1727.85 211.1L1723.3 206.997L1724.47 204.406C1724.79 204.139 1725.02 203.409 1725.14 202.215C1725.47 201.948 1725.77 200.472 1726.05 197.786C1722.75 203.47 1718.97 206.539 1714.7 206.992C1714.23 202.719 1713.64 199.639 1712.93 197.754C1711.92 195.837 1710.7 194.501 1709.27 193.746C1708.94 194.013 1708.72 194.743 1708.59 195.937C1708.47 197.131 1708.96 198.238 1710.06 199.26C1710.87 200.25 1711.24 201.044 1711.18 201.641C1711.09 202.536 1710.23 203.502 1708.62 204.537C1707.34 205.306 1706.25 205.643 1705.35 205.549L1703.09 214.36C1699.7 212.19 1697.1 211.01 1695.31 210.82C1692.93 210.568 1691.53 212.381 1691.14 216.261L1704.21 216.74C1703.79 217.902 1702.8 218.703 1701.25 219.142C1699.36 219.847 1698.21 220.781 1697.79 221.944L1691.76 219.042L1691.31 218.994C1687.73 218.615 1685.93 221.441 1685.92 227.473L1690.68 220.737ZM1715.48 217.03C1715.67 215.239 1715.63 214.179 1715.36 213.849C1715.12 213.22 1714.12 212.662 1712.36 212.174C1712.84 213.431 1713.88 215.05 1715.48 217.03ZM1697.5 193.856C1697.12 191.704 1696.64 190.447 1696.08 190.086C1695.81 189.755 1694.76 189.645 1692.94 189.754C1693.48 190.414 1694.6 191.286 1696.29 192.371L1697.5 193.856ZM1725.54 224.883C1724.92 222.102 1724.34 220.381 1723.8 219.721C1723.3 218.763 1721.8 217.246 1719.29 215.171L1722.14 222.713C1721.54 222.65 1720.84 222.123 1720.04 221.133L1717.49 219.505C1716.6 219.411 1715.78 220.078 1715.03 221.507C1716.22 221.633 1717.8 222.404 1719.77 223.819C1722.3 225.595 1724.22 225.95 1725.54 224.883ZM1703.59 191.787C1703.6 188.771 1703.32 187.082 1702.75 186.72C1702.51 186.092 1701.2 185.651 1698.82 185.398C1700.1 184.629 1700.8 183.648 1700.93 182.454C1701.08 180.962 1701.04 179.902 1700.8 179.273C1700.65 177.749 1700.58 176.987 1700.58 176.987C1700.31 176.657 1699.73 176.445 1698.84 176.35L1699.97 169.683L1706.87 168.603C1705.8 167.283 1704.66 166.559 1703.47 166.433L1701.14 167.091C1700.15 167.892 1699.2 168.394 1698.27 168.598L1698.84 176.35L1697.67 178.941L1698.24 182.17L1698.82 185.398L1703.59 191.787ZM1690.43 152.381L1688.64 152.192C1686.55 151.971 1686.13 153.133 1687.38 155.678L1690.43 152.381ZM1714.03 187.01L1717.07 188.237C1718.56 188.395 1719.88 187.328 1721.02 185.035L1714.03 187.01ZM1706.43 181.68C1707.06 181.445 1708.72 181.469 1711.4 181.754L1709.53 177.935L1714.63 181.19L1719.47 178.083L1709.53 177.935L1708.01 179.584L1706.43 181.68ZM1700.04 160.187C1697.36 156.886 1695.65 154.442 1694.91 152.855L1692.04 154.362C1694.09 157.897 1696.76 159.839 1700.04 160.187ZM1711.34 169.077C1711.62 166.391 1709.92 165.306 1706.25 165.822L1711.25 169.972L1711.34 169.077ZM1692.07 140.789C1691.95 141.983 1692.02 142.745 1692.29 143.075C1692.56 143.405 1693.58 143.665 1695.37 143.855L1692.07 140.789ZM1692.18 130.846L1691.29 130.751C1690.15 133.044 1689.41 134.324 1689.08 134.591L1690.69 136.571L1692.18 130.846ZM1722.59 160.766L1720.99 158.786C1720.72 158.456 1720.29 158.259 1719.69 158.196C1719.36 158.463 1718.9 158.565 1718.3 158.502L1718.21 159.397C1719.28 160.717 1720.4 161.59 1721.56 162.015L1722.59 160.766Z" fill="#867265"></path>
<path d="M1868.47 512.117C1846.38 507.819 1833.45 505.15 1829.68 504.111C1819.96 502.22 1816.02 496.409 1817.85 486.68C1818.99 478.956 1823.69 453.129 1831.94 409.197L1848.33 324.367L1864.42 236.27L1876.74 173.112L1881.72 146.576L1884.21 133.308C1886.43 121.514 1891.95 116.477 1900.79 118.196L1932.15 124.298L1939.66 125.759C1950.26 127.822 1954.7 133.424 1952.99 142.564C1952.45 147.044 1949.91 161.372 1945.37 185.55L1934.82 241.718L1925.85 289.483L1915.22 346.093L1905.83 396.069L1896.28 446.93L1917.92 451.141C1921.11 452.066 1930.36 454.019 1945.67 456.998L1984.18 464.034C1987.42 464.664 1989.88 466.212 1991.55 468.677C1993.57 470.904 1994.43 473.668 1994.11 476.969C1994.08 478.795 1993.09 484.868 1991.15 495.188L1986.91 517.743L1984.78 524.205C1983.42 528.219 1980.51 530.709 1976.06 531.676C1971.66 532.348 1967.28 532.106 1962.91 530.952L1955.85 529.577L1916.98 522.013L1868.47 512.117ZM1852.31 478.715C1850.82 476.897 1849.78 475.931 1849.19 475.816C1848.66 475.407 1847.54 475.649 1845.85 476.542C1846.09 476.894 1846.35 477.098 1846.65 477.156C1847.24 477.27 1847.65 477.504 1847.89 477.856L1851.18 479.87L1852.31 478.715ZM1845.3 467.267C1845.39 470.035 1845.73 471.476 1846.32 471.591C1847.2 471.763 1848.79 471.459 1851.07 470.681L1845.3 467.267ZM1858.82 485.484C1860.22 484.534 1861.95 484.259 1864.01 484.66C1864.49 485.364 1865.52 485.565 1867.1 485.262L1862.94 483.075L1860.01 481.589C1859.77 481.237 1859.71 480.766 1859.82 480.177L1859.1 479.12C1857.33 478.776 1856.27 478.723 1855.92 478.961C1854.99 479.084 1854.46 479.44 1854.35 480.03C1854.29 480.325 1854.56 480.529 1855.15 480.644C1856.03 480.816 1857.35 480.308 1859.1 479.12L1858.49 479.919C1858.14 480.156 1858.06 480.598 1858.24 481.245L1858.82 485.484ZM1852.4 463.605L1846.57 462.93C1847.59 464.044 1848.53 464.686 1849.42 464.858L1852.23 464.489L1852.4 463.605ZM1856.29 472.155L1857.92 468.346L1857.03 468.174C1856.81 469.354 1856.12 470.595 1854.96 471.897L1856.29 472.155ZM1865.98 471.748C1863.88 473.174 1862.63 474.153 1862.22 474.685C1862.11 475.275 1862.86 476.184 1864.46 477.412L1865.98 471.748ZM1874.81 488.136C1875.69 488.308 1876.25 488.57 1876.49 488.922L1878.09 490.15L1878.7 489.351C1877.21 487.533 1875.25 485.777 1872.82 484.082L1871.02 488.775L1874.81 488.136ZM1864.02 462.658C1864.13 462.068 1864.65 460.946 1865.57 459.291L1864.25 459.034L1862.7 462.4L1864.02 462.658ZM1850.1 431.984C1851.86 432.327 1852.94 431.467 1853.33 429.403C1853.55 428.224 1853.84 427.516 1854.18 427.278C1854.3 426.688 1853.14 425.546 1850.71 423.851L1849.66 424.564L1850.1 431.984ZM1871.57 444.414C1871.98 443.881 1872.4 442.436 1872.84 440.077C1871.9 440.2 1871.11 440.352 1870.47 440.532C1870.12 440.769 1870.06 441.064 1870.3 441.416L1870.25 444.156L1871.57 444.414ZM1863.82 436.945C1865.56 435.758 1867.58 434.775 1869.86 433.996L1865.06 430.311L1863.82 436.945ZM1890.04 494.768C1890.1 494.473 1890.57 494.412 1891.45 494.584L1896.17 491.377L1900.45 488.084L1902.41 489.84L1908.35 492.371C1908.94 492.485 1909.76 492.186 1910.81 491.473C1908.43 489.484 1905.46 486.613 1901.89 482.863C1903.7 481.38 1905.83 480.573 1908.3 480.442C1907.43 481.801 1906.06 482.604 1904.18 482.85L1910.37 484.053C1910.09 485.528 1910.34 486.646 1911.11 487.407L1913.4 487.395C1913.64 487.747 1913.68 488.365 1913.51 489.25L1912.24 493.586L1911.19 494.299C1910.49 494.774 1909.98 495.896 1909.64 497.665L1910.09 497.751C1910.97 497.923 1911.96 497.505 1913.07 496.498C1913.82 495.728 1914.79 495.458 1915.97 495.687C1915.73 495.335 1915.17 495.073 1914.28 494.901C1913.11 494.671 1912.4 494.381 1912.16 494.029L1914.62 493.132L1916.19 492.063L1916.36 491.178C1916.47 490.588 1917.78 490.08 1920.31 489.654L1918.79 487.984L1922.35 483.635C1922.3 483.929 1922.51 484.429 1922.99 485.133C1923.81 485.6 1924.12 486.423 1923.9 487.602L1923.12 489.286C1926.66 489.973 1929.39 490.047 1931.32 489.506L1931.49 488.621C1931.25 488.269 1930.1 487.893 1928.04 487.491L1928.2 486.607C1928.48 485.133 1927.05 483.786 1923.93 482.566L1926.88 479.015C1927.1 477.836 1925.6 476.931 1922.36 476.3C1922.25 476.89 1922.31 477.361 1922.55 477.713C1922.33 478.893 1922.04 479.601 1921.69 479.839C1921.16 479.429 1920.48 478.991 1919.65 478.524C1919.12 478.115 1918.43 477.677 1917.61 477.21C1915.66 476.219 1914.44 475.372 1913.96 474.667C1910.02 474.512 1907.64 474.201 1906.81 473.734L1906.56 475.061L1912.94 477.677C1913.29 477.44 1913.63 476.436 1913.96 474.667C1914.99 477.313 1916.46 480.044 1918.38 482.861L1917.05 482.603C1916.11 482.726 1915.23 482.554 1914.4 482.087C1915.71 483.258 1916.42 484.315 1916.55 485.257L1917.9 487.812L1917.02 487.64C1914.67 487.182 1913 485.482 1912.03 482.542C1909.4 478.669 1907.35 476.589 1905.87 476.302C1905.28 476.187 1902.94 476.495 1898.83 477.224C1894.67 478.248 1891.91 478.322 1890.55 477.446L1892.34 480.087L1892.98 481.586C1892.28 482.061 1891.48 481.447 1890.57 479.743L1889.67 477.274L1890.11 477.36C1890.88 473.232 1890.71 470.906 1889.59 470.382L1883.16 463.172C1883.03 462.23 1882.61 461.231 1881.89 460.174L….18 422.805L1869.32 424.721ZM1871.03 427.805C1871.73 427.329 1872.58 427.649 1873.59 428.763C1874.26 430.114 1874.85 430.994 1875.39 431.404C1876.27 431.576 1877.32 430.863 1878.54 429.266C1877.87 427.914 1877.1 427.153 1876.22 426.981L1873.84 427.436C1872.2 428.034 1871.27 428.157 1871.03 427.805ZM1928.48 494.911L1922.51 497.418L1927.84 500.747L1928.48 494.911ZM1875.92 416.379C1875.68 416.027 1875.64 415.409 1875.81 414.524C1872.98 413.361 1870.2 411.904 1867.47 410.151L1869.24 417.829L1875.92 416.379ZM1937.22 504.407C1937.44 503.227 1937.05 502.081 1936.04 500.967C1934.97 500.148 1934.2 499.387 1933.72 498.682C1934.31 498.797 1934.52 499.297 1934.35 500.181L1933.33 503.191C1932.94 505.255 1933.98 506.221 1936.45 506.09L1937.22 504.407ZM1927.84 493.413C1928.14 493.47 1928.43 493.527 1928.72 493.585C1929.37 493.404 1929.72 493.167 1929.77 492.872C1929.83 492.577 1929.53 491.754 1928.86 490.403L1927.81 491.115L1927.29 491.472L1927.84 493.413ZM1882.02 425.359L1884.37 422.607L1883.21 421.464L1880.86 424.216L1882.02 425.359ZM1919.78 482.677C1919.86 483.913 1920.34 484.618 1921.22 484.789C1922.1 484.961 1922.89 484.81 1923.59 484.335C1923.94 484.097 1924.41 484.036 1925 484.15C1925.89 484.322 1926.47 483.671 1926.74 482.197C1927.02 480.722 1927.04 479.809 1926.8 479.457L1926 478.843L1919.78 482.677ZM1945.28 507.809L1945.53 506.482C1945.29 506.13 1944.58 505.839 1943.41 505.61C1943.06 505.848 1942.59 505.909 1942 505.795C1941.65 506.032 1941.62 506.18 1941.92 506.237L1941.75 507.121L1945.28 507.809ZM1937.53 493.006C1937.59 492.712 1937.38 492.212 1936.9 491.508L1935.82 489.923L1934.77 490.636L1935.63 495.844L1937.53 493.006ZM1882.44 408.479C1884.5 408.88 1885.7 408.196 1886.03 406.427L1882.44 408.479ZM1940.41 482.564C1939.95 483.391 1939.19 484.161 1938.14 484.874C1937.09 485.586 1936.1 486.004 1935.16 486.127L1935 487.012C1935 487.012 1935.68 487.45 1937.04 488.326L1940.32 490.34L1940.41 482.564ZM1947.88 496.396C1947.33 494.455 1947.15 491.363 1947.34 487.121L1941.76 492.453L1946.31 497.465L1947.88 496.396ZM1961.77 500.473C1962.73 501.882 1963.82 502.553 1965.05 502.488L1961.77 500.473ZM1888.11 280.764L1883.7 279.905L1883.61 280.347L1887.86 282.091L1888.11 280.764ZM1884.91 270.973L1880.75 268.787C1880.99 269.139 1880.99 269.905 1880.77 271.084L1880.83 275.679L1884.91 270.973ZM1906.47 290.295C1904.02 291.958 1902.66 293.527 1902.38 295.001C1902.21 295.885 1902.97 297.56 1904.64 300.025L1906.47 290.295ZM1893.28 277.643C1893 279.117 1894.07 277.492 1896.48 272.766L1889.88 273.774L1893.28 277.643ZM1901.28 283.785L1898.25 280.444L1896.59 281.955L1899.62 285.296L1901.28 283.785ZM1893.59 266.243C1894.18 266.357 1894.7 266.001 1895.16 265.174L1897.34 263.306L1889.56 260.875C1889.23 262.644 1889.21 263.557 1889.5 263.614C1890.46 265.023 1891.82 265.899 1893.59 266.243ZM1902.31 273.441C1902.31 273.441 1900.8 272.536 1897.78 270.726L1898.19 275.849L1902.31 273.441ZM1905.6 253.453L1904.8 252.839L1902.04 257.802L1904.17 258.674L1905.6 253.453ZM1910.32 257.58L1910.63 253.514L1908.86 253.17L1908.53 254.939C1907.83 255.414 1907.69 256.151 1908.11 257.15L1910.32 257.58ZM1900.2 235.898L1897.28 234.412L1894.9 234.867C1895.21 236.456 1895.52 237.279 1895.81 237.336L1900.2 235.898ZM1899.18 231.574L1899.93 227.593L1899.05 227.422L1897.86 231.316L1899.18 231.574ZM1911.3 242.641L1905.72 240.64L1905.47 241.966L1911.05 243.968L1911.3 242.641ZM1889.64 206.796L1888.54 202.914L1887.57 203.185L1888.23 206.981L1889.64 206.796ZM1909.52 203.33C1907.26 200.75 1905.31 199.759 1903.67 200.357L1909.52 203.33ZM1916.33 181.732C1916.68 181.494 1917.29 181.462 1918.18 181.634L1920.83 182.149C1922.59 182.493 1923.4 181.428 1923.26 178.955C1922.91 179.192 1922.14 179.197 1920.97 178.967C1918.91 178.566 1917.36 179.488 1916.33 181.732ZM1916.55 170.774L1913.35 168.317C1913.99 173.026 1914.9 175.496 1916.08 175.725C1917.26 175.954 1918.55 175.593 1919.95 174.643L1916.55 170.774ZM1904.61 144.154L1903.32 138.859L1897.13 137.656L1896.36 139.339C1896.19 140.223 1896.79 141.104 1898.15 141.98C1899.51 142.856 1900.14 143.589 1900.03 144.179L1904.61 144.154ZM1922.63 170.122C1926.68 169.688 1928.04 168.119 1926.72 165.417L1925.92 164.802L1922.63 170.122ZM1902.35 139.129C1903.07 140.186 1904.02 140.828 1905.19 141.058L1909.34 140.947L1913.04 140.75C1910.42 138.408 1908.53 137.122 1907.35 136.893C1906.47 136.721 1904.8 137.466 1902.35 139.129ZM1926.75 160.38L1924.84 155.884L1919.98 162.272L1926.75 160.38ZM1910.21 155.787C1911.74 150.889 1914.49 149.284 1918.44 150.97L1918.77 149.201L1917.78 147.174C1917.54 146.822 1917.53 146.056 1917.75 144.877C1918.03 143.403 1919.44 143.218 1921.98 144.324L1927.7 143.144L1916.88 137.371L1915.13 139.324C1914.27 140.684 1913.96 141.54 1914.19 141.892C1914.43 142.244 1914.44 143.01 1914.22 144.189C1913.94 145.664 1912.24 148.235 1909.11 151.905C1908.76 152.142 1908.68 152.585 1908.86 153.232L1908.61 154.558L1910.21 155.787ZM1925.15 151.817L1932.08 149.04L1928.71 147.468C1927.24 147.181 1926.39 146.862 1926.15 146.51L1925.15 151.817Z" fill="#867265"></path>
<path d="M2081.24 559.946C2077.2 558.791 2074.16 556.83 2072.13 554.063C2070.38 551.378 2069.98 548.301 2070.94 544.831C2071.5 542.807 2071.96 541.691 2072.33 541.484C2076.12 532.272 2081.62 521.365 2088.84 508.765L2097.33 491.537L2111.46 462.35L2122.33 441.59L2126.46 433.411C2131.22 422.917 2136.34 412.837 2141.81 403.17L2153.83 379.931L2163.79 360.783L2164.94 358.304C2165.31 358.097 2165.7 357.271 2166.1 355.825C2175.52 336.367 2182.27 323.167 2186.37 316.227L2195.89 296.954C2199.46 290.799 2205.84 278.426 2215.02 259.835L2223.15 243.909L2234.38 221.848C2234.91 221.063 2237.08 217.159 2240.88 210.135C2242.5 206.541 2245.44 203.794 2249.7 201.892C2254.32 199.784 2258.66 199.308 2262.69 200.464C2263.48 201.001 2266.61 202.053 2272.09 203.621L2291.68 208.759C2294.28 209.502 2295.97 210.141 2296.75 210.678C2297.25 211.133 2298.8 211.731 2301.39 212.474C2307.74 214.29 2311.38 215.177 2312.33 215.135L2323.7 217.921C2336.1 221.47 2343.78 226.321 2346.75 232.475C2348.18 236.316 2348.62 240.344 2348.08 244.557C2348.03 258.271 2347.53 267.958 2346.59 273.617C2347.03 276.55 2347.08 278.595 2346.76 279.751L2346.19 285.204L2345.24 297.101L2344.86 303.545L2344.48 309.989L2342.77 334.773L2340.7 360.859L2336.73 419.166L2334 454.422L2333.19 469.169L2328.36 527.227L2326.99 555.854C2327.34 559.076 2326.92 567.378 2325.71 580.762C2324.79 594.229 2323.54 604.948 2321.96 612.921C2322.17 613.293 2321.95 614.635 2321.32 616.949C2319.32 624.178 2313.85 626.513 2304.91 623.954L2259.91 611.079C2254.72 609.593 2251.21 607.652 2249.39 605.257C2247.85 602.944 2247.18 599.165 2247.38 593.919L2250.55 558.786C2251.68 551.309 2252.07 545.96 2251.72 542.738L2251.97 528.301L2195.41 511.649L2176.81 506.325L2170.43 517.604C2167.74 520.578 2165.43 524.441 2163.49 529.192L2153.73 549.332L2144.99 567.427C2142.08 573.458 2137.45 575.566 2131.11 573.75L2095.63 563.598L2081.24 559.946ZM2098.19 544.204C2097.69 543.75 2096.91 543.213 2095.83 542.594C2094.84 541.685 2094.05 541.148 2093.48 540.983C2092.32 540.653 2091.15 540.942 2089.97 541.852C2092.95 544.577 2095.74 546.311 2098.34 547.054C2100.36 547.632 2102.21 547.693 2103.89 547.238L2098.19 544.204ZM2102.68 543.149L2103.12 543.273L2102.54 540.299L2101.84 537.759C2105.52 541.31 2107.62 543.313 2108.11 543.768C2107.28 542.281 2106.73 540.876 2106.48 539.555L2110.42 538.81L2110.8 532.366C2107.46 532.036 2105.4 533.318 2104.6 536.209L2103.49 536.829L2101.84 537.759L2098.81 536.892C2099.9 539.701 2100.86 541.849 2101.7 543.335L2102.68 543.149ZM2102.24 526.172L2102.96 523.57L2101.23 523.074L2100.94 525.801L2102.24 526.172ZM2126.28 540.541C2126.42 537.773 2126.39 536.203 2126.18 535.832C2125.44 536.245 2124.93 536.41 2124.64 536.328C2125.19 537.732 2125.26 539.157 2124.86 540.603L2126.28 540.541ZM2139.55 519.533L2137.94 518.604C2136.21 518.108 2134.8 519.265 2133.71 522.074L2139.55 519.533ZM2136.93 515.506C2137.79 515.753 2138.43 515.154 2138.82 513.708L2134.42 511.045C2134.03 512.491 2133.64 513.317 2133.27 513.524C2134.43 513.854 2135.11 514.205 2135.32 514.577C2135.53 514.948 2136.06 515.258 2136.93 515.506ZM2145.85 520.398L2145.94 516.681L2144.95 516.867L2144.52 516.743L2143.68 519.779L2145.85 520.398ZM2144.56 506.457C2144.35 506.086 2143.1 505.57 2140.79 504.909L2140.43 506.211L2144.2 507.759L2144.56 506.457ZM2135.36 482.295C2136.87 485.847 2138.6 486.342 2140.56 483.781L2135.36 482.295ZM2161.03 423.178C2161.27 422.31 2161.76 421.67 2162.49 421.257L2156.87 419.647L2156.51 420.948C2157.95 421.361 2158.78 421.753 2158.99 422.125C2159.19 422.497 2159.88 422.848 2161.03 423.178ZM2270.4 588.336L2269.58 586.23L2267.61 586.602L2267.68 588.027L2270.4 588.336ZM2285.4 598.246C2286.27 598.494 2286.88 598.514 2287.25 598.307C2286.83 597.564 2286.74 596.758 2286.98 595.891C2285.75 595.85 2284.11 596.16 2282.06 596.822C2282.27 597.193 2282.29 597.668 2282.13 598.247L2285.4 598.246ZM2275.94 580.094C2274.37 579.02 2273.46 577.823 2273.2 576.501C2272.94 575.179 2273.17 573.217 2273.89 570.614C2271.59 569.954 2270.07 570.925 2269.35 573.528C2269.5 576.378 2271.01 578.216 2273.9 579.041C2274.11 579.413 2274.79 579.764 2275.94 580.094ZM2176.03 402.665C2176.48 402.169 2176.98 400.909 2177.54 398.885C2177.86 397.728 2177.73 397.067 2177.16 396.902C2175.43 396.407 2174.23 396.221 2173.58 396.345L2175.02 399.567L2176.03 402.665ZM2278.84 564.541L2276.41 561.506C2276.41 561.506 2276.22 561.609 2275.86 561.816C2275.49 562.022 2275.16 562.084 2274.87 562.002L2276.75 565.347L2278.84 564.541ZM2290.39 581.887C2290.87 580.152 2290.9 578.913 2290.48 578.169C2289.85 577.054 2286.98 574.515 2281.85 570.55C2281.69 571.129 2280.2 572.575 2277.38 574.889L2283.24 575.631C2284.4 575.961 2285.29 576.684 2285.91 577.799C2286.62 578.625 2287.28 579.595 2287.91 580.71C2288.54 581.825 2289.16 582.941 2289.79 584.056L2290.39 581.887ZM2176.89 394.486C2176.3 392.131 2176.08 390.665 2176.24 390.087C2176.4 389.508 2176.69 389.591 2177.1 390.334C2177.31 390.706 2177.71 390.974 2178.28 391.139L2181.07 392.874L2187.15 389.464L2192 387.108C2193.22 384.96 2194…2.012C2275.76 252.879 2275.74 253.499 2275.95 253.87L2276.34 255.853C2276.47 256.514 2276.68 257.98 2276.99 260.252L2277.42 260.376ZM2286.94 263.1L2284.35 262.357C2282.61 261.862 2281.51 262.482 2281.03 264.217L2286.94 263.1ZM2316.42 316.936C2316.46 312.268 2315.48 309.645 2313.46 309.068L2309.76 308.945L2316.42 316.936ZM2301.1 298.042C2303.69 298.785 2306.41 299.094 2309.24 298.969C2307.99 296.739 2306.65 295.417 2305.2 295.005C2304.84 295.211 2304.08 295.149 2302.92 294.819C2301.19 294.324 2300.13 293.085 2299.75 291.103L2297.94 289.182L2296.14 287.262L2301.23 284.039L2301.04 283.047C2300.75 282.965 2300.65 282.779 2300.73 282.49L2295.17 282.305L2295.87 284.846L2296.14 287.262C2296.21 290.401 2296.78 292.281 2297.85 292.9C2298.57 295.915 2299.66 297.629 2301.1 298.042ZM2287.91 276.483C2289.36 276.896 2290.16 276.813 2290.32 276.234L2295.96 272.701C2293.73 271.752 2292.02 268.923 2290.83 264.214L2288.1 269.048C2289.56 271.65 2289.26 273.281 2287.21 273.943L2287.91 276.483ZM2280.66 248.664L2280.78 248.231L2279.72 246.992C2279.51 246.62 2278.83 246.269 2277.68 245.939L2276.88 247.116C2278.04 247.447 2278.72 247.798 2278.93 248.169L2279.99 249.408L2280.66 248.664ZM2322.89 323.936C2324.36 323.109 2325.38 321.684 2325.94 319.66C2325.65 319.577 2325.55 319.391 2325.62 319.102L2324.76 318.854L2322.89 323.936ZM2274.24 239.806C2275.84 239.64 2277.66 239.227 2279.71 238.565C2278.86 234.889 2277.73 232.225 2276.32 230.573L2271.93 236.337C2272.89 238.484 2273.66 239.641 2274.24 239.806ZM2304.51 292.464C2306.22 290.77 2307.27 289.2 2307.67 287.755C2308.23 285.73 2307.78 283.417 2306.32 280.815L2304.51 292.464ZM2298.03 277.038C2301.5 274.6 2303.59 272.699 2304.27 271.336C2304.59 270.179 2304.11 269.105 2302.83 268.114L2301.63 272.452L2298.58 268.301L2298.03 277.038ZM2278.79 223.323C2275.82 222.787 2274.22 222.952 2273.98 223.82C2273.74 224.687 2274.29 226.092 2275.62 228.033L2278.79 223.323ZM2294.98 250.891C2294.8 249.28 2293.99 248.269 2292.55 247.856C2291.4 247.526 2290.64 247.464 2290.27 247.671C2288.38 247.754 2287.33 247.609 2287.12 247.238C2287.35 249.799 2288.04 251.244 2289.19 251.574L2292.46 251.574L2294.98 250.891ZM2323.36 305.347C2322.28 304.728 2321.59 303.282 2321.29 301.011C2320.9 299.028 2319.99 297.83 2318.54 297.418L2319 300.825C2318.7 304.171 2320.15 305.679 2323.36 305.347ZM2300.4 265.079L2303.59 263.653L2299.43 260.122L2297.73 262.911C2296.47 264.109 2296.47 265.204 2297.76 266.195L2300.4 265.079ZM2314.02 286.761L2314.14 286.328C2314.62 284.593 2314.75 283.539 2314.54 283.168C2314.25 283.085 2313.74 283.25 2313.01 283.664L2313.51 285.213C2313.35 285.791 2313.38 286.266 2313.58 286.638L2314.02 286.761ZM2306.72 260.802C2306.51 260.43 2306.6 259.521 2307 258.076L2306.18 255.969C2305.14 254.111 2303.88 253.595 2302.41 254.421L2307 258.076L2305.34 259.005L2303.69 259.935L2306.72 260.802ZM2324.11 292.459C2324.34 289.402 2324.61 287.296 2324.93 286.139C2325.79 286.387 2326.92 286.242 2328.31 285.704L2330.59 277.463C2327.4 279.984 2324.89 281.76 2323.05 282.794L2320.38 280.626L2318.14 278.582C2316.83 278.83 2315.87 279.491 2315.26 280.565L2322.02 284.839L2318.78 288.123L2324.11 292.459ZM2308.46 278.15C2315.36 277.942 2319.39 275.194 2320.54 269.906C2322.85 270.567 2324.3 272.074 2324.89 274.428C2325.07 276.039 2325.3 276.886 2325.59 276.969C2326.25 276.845 2327.35 276.225 2328.91 275.109C2328.07 273.622 2327.65 271.784 2327.63 269.595C2325.91 265.671 2323.71 262.388 2321.01 259.745L2320.18 271.208L2312.17 264.704L2310.16 266.935C2308.97 267.844 2308.26 268.732 2308.02 269.6C2307.78 270.467 2308.18 271.831 2309.23 273.689C2308.04 274.598 2307.21 275.92 2306.73 277.655C2306.33 279.101 2306.38 280.051 2306.88 280.505C2307.37 280.96 2308.67 281.331 2310.77 281.62L2308.46 278.15ZM2310.96 252.188L2311.63 251.444C2311.06 251.279 2309.7 250.578 2307.55 249.339C2309.13 246.984 2310.25 245.744 2310.91 245.62C2311.65 245.207 2313.31 245.372 2315.91 246.115L2314.23 252.187L2321.94 252.991C2322.01 250.512 2321.58 248.674 2320.67 247.477C2320.07 245.122 2318.49 244.668 2315.91 246.115L2312.61 242.832C2309.97 241.139 2308.23 239.549 2307.4 238.062C2306.64 236.286 2306.58 234.241 2307.22 231.928L2296.63 233.108L2295.9 227.284C2294.68 229.432 2293.52 230.816 2292.42 231.436C2291.31 232.056 2290.15 233.44 2288.94 235.589L2294.56 237.198L2288.87 242.59C2293.15 242.878 2296.46 241.018 2298.82 237.011L2304.18 244.631L2302.04 247.296L2306.44 249.959L2310.41 252.498L2310.96 252.188ZM2318.42 259.002L2320.43 256.771C2319.57 256.523 2319.22 256.11 2319.38 255.532C2318.32 257.102 2317.71 258.176 2317.55 258.754L2318.42 259.002ZM2323.43 245.927C2324.33 244.935 2325.96 243.53 2328.33 241.712L2325.97 240.102C2324.24 239.607 2323.86 238.719 2324.84 237.438L2326.18 235.95C2322.5 238.017 2320.19 239.071 2319.24 239.112C2317.06 239.113 2315.73 238.886 2315.23 238.432L2315.18 240.291L2322.85 242.953L2323.43 245.927ZM2329.73 246.793C2328.73 245.884 2327.93 245.967 2327.32 247.041C2327.53 247.413 2329.39 248.569 2332.9 250.509L2329.73 246.793Z" fill="#867265"></path>
</svg>